<?xml version="1.0" encoding="utf-8"?><svg viewBox="0 0 115 74" xmlns="http://www.w3.org/2000/svg" xmlns:xlink="http://www.w3.org/1999/xlink"><style>:root>svg{display:none}:root>svg:target{display:block}</style><svg fill="none" viewBox="0 0 72 72" id="comfort" xmlns="http://www.w3.org/2000/svg"><path d="M71.287 51.01c-.053-.046-.117-.1-.19-.17-4.033-3.834-8.195-5.308-12.372-4.376a5.134 5.134 0 00-1.783.741l-14.504 9.157c-.424-3.915-3.305-7.963-6.31-9.21l-18.387-4.924-.226-.065c-.686-.203-1.332-.32-2.31.295L.83 51.535c-.196.121-.654.406-.793 1.017-.14.61.15 1.057.311 1.304L9.851 68.95c.094.153.382.617 1.011.754.627.136 1.093-.167 1.257-.275a304.63 304.63 0 001.943-1.228c4.308.358 8.971 1.126 13.482 1.869 4.344.715 8.835 1.455 13.078 1.843l1.008.084.11.003c.336 0 .617-.083.93-.277l28.295-17.866c.34-.213.97-.612 1.03-1.411.059-.775-.46-1.221-.708-1.436zM2.334 53.945l-.798-1.177.905 1.097a.895.895 0 01-.107.08zM41.43 69.146l-.555-.046c-4.123-.376-8.561-1.107-12.853-1.814-4.635-.765-9.427-1.554-13.906-1.915a3.22 3.22 0 00-.26-.011c-.567 0-.895.175-1.265.409-.322.205-.644.41-.968.614L3.377 53.287 16.7 44.874l18.383 4.914c2.224.989 4.51 4.644 4.518 7.563l-17.558-3.962c-.777-.176-1.55.298-1.73 1.058-.18.76.305 1.519 1.081 1.694l19.078 4.305c.398.092.799.014 1.119-.19L58.5 49.58c.33-.208.508-.283.861-.362 2.962-.66 5.897.306 8.953 2.951L41.43 69.146zM27.232 38.87c.397 0 .791-.17 1.065-.499 4.15-4.977 11.34-7.949 19.234-7.949 7.9 0 15.091 2.972 19.236 7.948a1.384 1.384 0 002.127-1.77c-3.28-3.937-8.206-6.753-13.868-8.082 4.694-2.587 7.884-7.587 7.884-13.322C62.91 6.816 56.105 0 47.74 0c-8.367 0-15.175 6.817-15.175 15.196 0 5.689 3.143 10.65 7.777 13.255-5.788 1.298-10.833 4.142-14.174 8.15a1.383 1.383 0 001.064 2.268zm8.103-23.674c0-6.854 5.566-12.43 12.406-12.43 6.839 0 12.401 5.576 12.401 12.43s-5.563 12.43-12.4 12.43c-6.841 0-12.407-5.576-12.407-12.43z" fill="#4F4F4F"/></svg><svg fill="none" viewBox="0 0 95 59" id="dynamic" xmlns="http://www.w3.org/2000/svg"><path d="M2 57l32.811-32.323a1 1 0 011.389-.014l16.305 15.405a1 1 0 001.371.003L71 24m-6.937-6.776l18.174-5.477-4.344 18.478-13.83-13.001z" stroke="#242627" stroke-width="3"/></svg><svg viewBox="0 0 10 17" id="fb" xmlns="http://www.w3.org/2000/svg"><path d="M9.661.128L7.501.125c-2.428 0-3.996 1.619-3.996 4.121v1.902H1.333a.342.342 0 00-.34.343v2.754c0 .187.152.34.34.34h2.172v6.951c0 .19.152.339.34.339h2.834c.188 0 .34-.149.34-.339v-6.95H9.56c.186 0 .34-.154.34-.341V6.49a.34.34 0 00-.34-.343H7.02v-1.61c0-.775.184-1.167 1.187-1.167H9.66c.188 0 .34-.154.34-.342V.469a.34.34 0 00-.34-.341z"/></svg><svg viewBox="0 0 16 17" id="inst" xmlns="http://www.w3.org/2000/svg"><path fill-rule="evenodd" clip-rule="evenodd" d="M15.89 4.107c-.195-1.593-1.057-2.605-2.565-2.93-.625-.134-1.28-.172-1.923-.18A338.17 338.17 0 005.616.996c-.497.002-.995.04-1.488.098-.995.118-1.846.513-2.43 1.37-.437.641-.598 1.375-.625 2.136-.046 1.294-.06 2.59-.089 3.885h.03c0 .797-.013 1.595.004 2.39.015.674.031 1.35.108 2.018.184 1.594 1.053 2.604 2.562 2.93.626.135 1.28.173 1.923.18 1.92.023 3.84.015 5.761.003a12.902 12.902 0 001.515-.099c1.587-.193 2.594-1.059 2.918-2.573.135-.627.173-1.284.18-1.928.023-1.927.015-3.853.004-5.78a13.883 13.883 0 00-.1-1.518zM8.502 13.22c-2.578-.002-4.7-2.131-4.702-4.718 0-2.585 2.118-4.716 4.697-4.722 2.578-.006 4.705 2.117 4.714 4.704.01 2.596-2.12 4.74-4.708 4.737zM13.4 4.703a1.124 1.124 0 01-1.109-1.098A1.104 1.104 0 0113.385 2.5a1.091 1.091 0 011.101 1.091A1.105 1.105 0 0113.4 4.703zm-4.86.742A3.04 3.04 0 005.46 8.46a3.04 3.04 0 003 3.095 3.04 3.04 0 003.092-3.029A3.04 3.04 0 008.54 5.445z"/></svg><svg fill="none" viewBox="0 0 115 25" id="logo" xmlns="http://www.w3.org/2000/svg"><path d="M24.922 9.842c-1.259 0-2.266.935-2.266 2.166 0 1.23 1.007 2.165 2.266 2.165 1.259 0 2.266-.935 2.266-2.165a2.29 2.29 0 00-2.266-2.166zm27.141-2.657c-.756-2.904-2.568-4.921-5.388-6.053C45.467.64 44.158.492 42.9.442a122.572 122.572 0 00-5.941 0c-.403 0-.403 0-.403.394v18.209c0 .099.05.099.1.099h4.33c1.26 0 2.87-.05 3.374-.099 1.31-.148 2.568-.492 3.675-1.181 2.87-1.722 4.28-4.33 4.482-7.579 0-1.033-.151-2.067-.453-3.1zm-4.935 6.053c-.856 1.181-2.064 1.92-3.524 2.116-.353.05-1.863.05-2.97.05V4.38c0-.295 0-.295.301-.295.403 0 .806.049 1.209.049.604.049 1.208.049 1.812.197 2.669.54 4.129 2.559 4.33 4.822.151 1.575-.252 2.904-1.158 4.085zm-34.591 2.166H9.92c-.302 0-.654 0-.956-.05-2.92-.492-4.633-2.706-4.834-5.02-.1-1.574.302-2.952 1.36-4.133 1.006-1.132 2.315-1.723 3.876-1.87.655-.05 1.36-.05 2.014-.148 1.158-.147 2.014-.738 2.468-1.771.251-.542.402-1.182.553-1.723.05-.148 0-.197-.15-.197H9.617a9.17 9.17 0 00-2.972.492c-2.416.788-4.28 2.166-5.488 4.43C.604 6.495.202 7.627.051 8.808c-.101.886-.101 1.821.1 2.707.453 2.116 1.46 3.937 3.122 5.364 1.813 1.526 3.927 2.264 6.294 2.362.956.05 1.913.05 2.87.05h.1c1.058 0 1.964-.886 1.964-1.92 0-1.132-.856-1.968-1.964-1.968z" fill="#7D7D7D"/><path d="M33.029 7.086c0-.688-.1-1.377-.252-2.066-.504-2.018-1.662-3.495-3.575-4.331-.856-.394-1.762-.541-2.719-.59h-3.172a6.43 6.43 0 00-2.719.59c-1.913.886-3.121 2.362-3.575 4.33-.15.69-.251 1.379-.251 2.067v11.91c0 .098.05.197.15.197h3.777c.102 0 .152-.05.152-.148V6.447c0-1.477 1.259-2.707 2.77-2.707h2.466c.705 0 1.36.246 1.813.689.05 0 .05.05.1.05l.152.147c.05.05.05.098.1.147a2.72 2.72 0 01.605 1.674v12.598c0 .099.05.197.15.197h3.777c.151 0 .151-.05.151-.197v-.148c.1-3.936.1-7.873.1-11.81z" fill="#7D7D7D"/><path d="M66.612 7.136a5.387 5.387 0 00-1.662-.886c-2.618-.935-5.035-.59-7.15 1.132-1.863 1.525-2.618 3.543-2.366 5.905.201 2.067 1.158 3.691 2.87 4.872 1.56 1.083 3.273 1.428 5.135 1.181 1.763-.245 3.273-.984 4.482-2.263.201-.246.201-.197 0-.443-.806-.984-2.266-1.378-3.475-.984-.201.049-.402.147-.654.196-1.561.493-2.87.099-4.028-1.033-.05-.05-.151-.148-.151-.295.05 0 .1 0 .1-.05 2.971-.688 5.992-1.328 8.963-2.017.302-.05.302-.05.302-.394 0-.541-.05-1.033-.201-1.575-.302-1.328-.957-2.51-2.165-3.346zm-1.36 4.035c-1.208.296-2.366.542-3.575.837-.856.197-1.762.394-2.618.59-.05 0-.1.05-.151 0-.05-.344 0-.64.1-.984.303-1.181 1.008-2.067 2.216-2.411.655-.197 1.41-.246 2.064-.099 1.058.197 1.712.886 2.065 1.87.15.148.05.148-.101.197zm49.746 1.132c0-.64 0-1.28-.051-1.92-.151-1.82-1.057-3.198-2.769-4.035-1.259-.64-2.669-.738-4.028-.492-2.417.443-4.179 2.313-4.229 4.725a51.947 51.947 0 000 3.986v4.232c0 .246 0 .246.251.246h2.87c.403 0 .353.05.353-.344v-6.94c0-.491.05-.983.201-1.475.202-.64.604-1.083 1.309-1.23.252-.05.504-.05.756-.05.805.05 1.309.492 1.51 1.23.151.492.201.935.201 1.427v6.989c0 .393-.05.344.353.344h2.92c.302 0 .302.05.302-.295v-.099c.051-2.017.051-4.183.051-6.299zm-36.052.247c-.403-.296-.806-.542-1.209-.788-.503-.246-1.057-.492-1.56-.738l-.907-.443a1.568 1.568 0 01-.554-.443c-.251-.345-.15-.787.202-.984.252-.148.503-.197.755-.148.252.05.453.148.655.246.503.295 1.057.541 1.56.788.554.246 1.159.344 1.763.196.554-.147.503-.049.403-.59v-.099c-.353-1.476-1.159-2.51-2.619-3.05-1.208-.444-2.467-.542-3.726-.198-1.258.296-2.165 1.034-2.568 2.264-.2.59-.2 1.23-.1 1.87.1.788.503 1.329 1.158 1.821.201.148.453.295.705.394.654.295 1.309.64 1.964.935.453.197.855.443 1.258.738.353.246.453.59.353.984-.101.443-.353.739-.806.837-.604.148-1.158.05-1.611-.295-.252-.148-.453-.345-.705-.443-.856-.542-2.115-.345-2.82.393-.201.197-.251.394-.15.64.251.541.553.985 1.006 1.378 1.158.935 2.468 1.476 3.978 1.476 1.108 0 2.115-.295 3.071-.738.605-.295 1.058-.738 1.41-1.328a3.77 3.77 0 00.453-2.313c-.15-1.034-.554-1.821-1.36-2.363zm7.351-5.02V6.3c0-.197 0-.247-.251-.247h-3.072c-.251 0-.251 0-.251.246V18.8c0 .295 0 .295.302.295h2.87c.403 0 .352.049.352-.394.05-3.74.05-7.431.05-11.171zM84.485 0c-1.259.05-2.216.984-2.216 2.165 0 1.23 1.007 2.166 2.216 2.166 1.259 0 2.266-.984 2.266-2.166C86.8.985 85.744-.049 84.485 0zm17.271 15.748v-2.707c0-.443-.05-.836-.05-1.28a2.84 2.84 0 00-.101-.639c-.302-1.87-1.208-3.297-2.669-4.232-.503-.295-1.007-.59-1.61-.788-.303-.098-.605-.196-.907-.246-.906-.197-1.863-.147-2.82 0-.604.099-1.158.246-1.661.492-.151.099-.353.148-.504.247a5.914 5.914 0 00-1.661 1.476c-1.007 1.329-1.46 2.756-1.46 4.281 0 .492.05 1.034.15 1.526.101.64.303 1.23.554 1.772.403.787.907 1.476 1.612 2.017.704.542 1.51.935 2.517 1.23.302.1.655.148.957.198.252.049.503.049.805.049 1.46 0 2.72-.542 3.374-1.329v.886c0 .147 0 .295-.05.443a2.924 2.924 0 01-.705 1.476 5.297 5.297 0 01-.605.492 3.94 3.94 0 01-.805.345l-.604.147c-.403.099-.806.099-1.209.099-.201 0-.403 0-.604-.05-.403-.049-.856-.098-1.259-.147-.403-.05-.805-.148-1.258-.197h-.152c-.05 0-.05.05-.1.148-.101.295-.151.59-.252.935-.1.443-.252.836-.353 1.28-.05.147-.1.344-.15.491v.099c0 .098.05.148.15.148.05 0 .05 0 .101.049.806.246 1.561.443 2.367.541 1.309.148 2.668.148 3.977-.148 1.007-.197 1.964-.541 2.82-1.18.352-.296.655-.591.906-.887.806-.935 1.209-2.116 1.309-3.395v-.05c-.05-1.23-.1-2.41-.05-3.592zm-6.697.05c-.352 0-.654-.05-.956-.1-1.007-.245-1.762-.885-2.065-1.918a5.875 5.875 0 01-.201-1.575c0-.197.05-.345.05-.542.05-.196.05-.393.151-.54.353-1.133 1.31-1.92 2.468-2.019h.704c.202 0 .403.05.605.099h.05c.201.049.353.147.554.197 0 0 .05 0 .05.049l.453.295.05.05c.152.098.303.245.404.393 0 0 0 .05.05.05.1.147.252.294.302.491v.05c.1.196.151.344.252.54.05.198.1.395.15.64v.296c0 .787 0 1.526.051 2.313-.654.738-1.813 1.23-3.122 1.23z" fill="#464646"/></svg><svg fill="none" viewBox="0 0 68 17" id="logo_footer" xmlns="http://www.w3.org/2000/svg"><path d="M13.602 8.05c0-.936.554-1.675 1.293-1.675.702 0 1.257.74 1.257 1.675 0 .937-.555 1.725-1.294 1.725-.702 0-1.256-.74-1.256-1.725zm17.585-2.784c-.455-1.708-1.515-2.897-3.142-3.566-.72-.297-1.477-.371-2.234-.409-1.173-.037-2.309 0-3.482 0-.227 0-.227 0-.227.223v10.737c0 .037.037.074.075.074h2.536c.758 0 1.666 0 1.969-.037.757-.112 1.476-.297 2.158-.706 1.665-1.04 2.498-2.526 2.612-4.458 0-.632-.114-1.263-.265-1.858zM28.31 8.833c-.492.706-1.212 1.114-2.082 1.226-.228.037-1.098.037-1.742.037V3.632c0-.149 0-.149.152-.149.227 0 .492.037.719.037.379 0 .72.038 1.06.112 1.552.334 2.423 1.523 2.536 2.86.114.855-.151 1.635-.643 2.34zM7.325 12.325l-1.82-.056c-.689 0-1.255-.334-1.255-.808 0-.474.566-.836 1.214-.836h1.82c.688 0 1.214.39 1.214.836.04.502-.486.864-1.173.864z" fill="#C3C8C8"/><path d="M5.831 10.063c-.19 0-.379 0-.568-.037-1.706-.297-2.73-1.595-2.806-2.967-.076-.927.19-1.742.796-2.41a3.333 3.333 0 012.275-1.112c.38-.037.796 0 1.175-.074.683-.112 1.176-.408 1.44-1.039.153-.333.228-.667.342-1.038.038-.074 0-.111-.076-.111H5.718c-.607.037-1.214.111-1.82.297-1.403.445-2.502 1.297-3.185 2.595A5.408 5.408 0 00.07 6.17c-.114.519-.076 1.075.038 1.594.265 1.26.834 2.299 1.82 3.152 1.06.89 2.312 1.335 3.715 1.372.568.037 1.1.037 1.668.037l.493-2.114c-.038-.037-1.365-.148-1.972-.148zM19.44 12.09V4.783a5.21 5.21 0 00-.148-1.296C19 2.232 18.34 1.328 17.24.778a3.388 3.388 0 00-1.503-.353h-1.798a3.54 3.54 0 00-1.54.354c-1.1.55-1.76 1.453-2.053 2.71-.11.431-.147.863-.147 1.295v7.384c0 .079.037.118.11.118h2.201c.074 0 .074-.04.074-.079V4.352c0-.942.696-1.688 1.576-1.688h1.43c.403 0 .77.157 1.027.432l.037.039c.036.04.073.079.073.118l.073.078c.22.275.33.629.33 1.021v7.855c0 .079.037.118.11.118h2.2c.074 0 .11-.04.11-.118-.11-.078-.11-.078-.11-.118zm40.749-1.247c0 .747.04 1.494-.04 2.24-.082 1.062-.529 1.966-1.382 2.634-.528.394-1.138.59-1.747.708-1.341.275-2.682.157-3.982-.236h-.04c-.122-.04-.122-.078-.082-.157.122-.354.203-.747.325-1.1.041-.197.122-.394.163-.551.04-.079.081-.118.162-.079.529.079 1.057.197 1.585.236.528.04 1.016 0 1.503-.157.731-.236 1.178-.668 1.341-1.415 0-.079.04-.197.04-.275a65.69 65.69 0 000-4.01c-.04-1.219-1.015-2.083-2.274-1.966a1.71 1.71 0 00-1.544 1.258 2.848 2.848 0 000 1.651c.243.747.853 1.219 1.706 1.258.203 0 .406.04.568.079.57.157.854.511.935 1.061.041.275-.04.433-.325.59-.731.393-1.462.472-2.234.236-1.626-.472-2.641-1.494-2.926-3.106-.244-1.297 0-2.555.853-3.616.61-.786 1.423-1.219 2.398-1.376.812-.118 1.584-.118 2.356.157 1.544.511 2.438 1.573 2.682 3.106.08.51.08 1.061.122 1.572-.163.393-.163.826-.163 1.258zm-25.236-.705c0 .079.08.118.12.197.686.708 1.533.944 2.501.63.121-.04.282-.08.404-.119.766-.236 1.653 0 2.177.59.121.158.121.118 0 .276-.766.826-1.694 1.259-2.823 1.416-1.17.158-2.258-.079-3.186-.747-1.09-.748-1.654-1.771-1.815-3.03-.161-1.456.323-2.715 1.492-3.66 1.331-1.1 2.824-1.258 4.437-.707.363.118.726.314 1.049.55.766.551 1.17 1.26 1.37 2.125.081.315.122.63.122.984 0 .196 0 .196-.202.236-1.855.433-3.75.826-5.606 1.259 0-.04-.04-.04-.04 0zm-.404-1.26c.04.04.08 0 .08 0 .525-.117 1.09-.235 1.614-.393.726-.157 1.492-.354 2.218-.511.081 0 .122-.04.081-.118-.202-.59-.605-1.023-1.29-1.18-.444-.08-.888-.08-1.291.039-.766.236-1.21.787-1.412 1.495 0 .275-.04.472 0 .669zm26.69.846c-.04-.758 0-1.515 0-2.273.04-1.407 1.106-2.454 2.57-2.706.87-.145 1.7-.072 2.45.288 1.028.47 1.582 1.263 1.7 2.31.04.36.04.721.04 1.082v3.753c0 .18 0 .144-.158.144h-1.78c-.236 0-.236.036-.236-.216v-3.97c0-.288-.04-.54-.119-.83-.118-.432-.474-.685-.949-.721-.158 0-.316 0-.474.036-.435.072-.672.325-.79.686a3.013 3.013 0 00-.12.83v3.969c0 .216.04.18-.236.216h-1.78c-.158 0-.158 0-.158-.144.04-.83.04-1.66.04-2.454zM44.678 12.32c-.893 0-1.708-.33-2.368-.845a2.2 2.2 0 01-.621-.808c-.078-.147-.039-.257.077-.367.427-.44 1.165-.514 1.708-.22.156.073.272.183.427.257.31.183.621.257.97.183.273-.073.428-.22.466-.477.078-.22 0-.404-.232-.551a2.983 2.983 0 00-.738-.441 35.924 35.924 0 00-1.203-.551c-.155-.073-.272-.147-.427-.22-.388-.258-.621-.588-.699-1.066-.039-.367-.039-.734.078-1.102.233-.734.776-1.138 1.553-1.322a3.929 3.929 0 012.25.11c.894.294 1.36.918 1.553 1.763V6.7c.04.33.078.294-.271.367a1.73 1.73 0 01-1.048-.11c-.31-.147-.621-.294-.932-.477a1.201 1.201 0 00-.388-.147c-.155-.037-.31 0-.466.073-.233.147-.272.367-.116.588.077.11.194.184.31.257.194.11.35.184.544.257l.931.441c.272.11.505.294.738.44.466.331.737.772.815 1.323.039.478-.039.919-.272 1.36a1.89 1.89 0 01-.854.77 2.956 2.956 0 01-1.785.478zm3.775-3.802V4.823c0-.148 0-.148.185-.148h2.174c.185 0 .185 0 .185.148v7.279c0 .258.046.221-.278.221h-2.081c-.231 0-.185 0-.185-.148V8.518zM48.45 2.1c0-.936.553-1.675 1.255-1.675.702 0 1.33.74 1.293 1.675 0 .937-.591 1.725-1.293 1.725-.665-.05-1.256-.788-1.256-1.725z" fill="#C3C8C8"/><path d="M60.352 9.569c0-.549 0-1.058-.122-1.567-.285-1.528-1.181-2.586-2.688-3.096-.773-.274-1.547-.274-2.36-.156-.978.156-1.792.587-2.403 1.371-.855 1.097-1.058 2.312-.855 3.605.285 1.606 1.303 2.664 2.931 3.095l.611.117c.163.04.326.04.489.04.895 0 1.71-.353 2.117-.823v.548c0 .079 0 .196-.04.275-.123.744-.611 1.175-1.344 1.41-.489.157-.977.196-1.507.157-.529-.04-1.058-.157-1.587-.235-.082 0-.123 0-.163.078-.041.196-.122.392-.163.549-.122.352-.204.744-.326 1.097-.04.117 0 .157.082.157h.04c1.303.391 2.647.509 3.99.235.651-.118 1.262-.314 1.75-.706.896-.666 1.303-1.567 1.385-2.625.04-.744.04-1.489.04-2.233.123-.431.123-.862.123-1.293zM56.158 10.9c-1.262 0-2.28-.705-2.28-1.528 0-.235.082-.47.245-.705 0-.235.04-.431.122-.666.244-.706.855-1.215 1.547-1.254 1.18-.078 2.158.666 2.28 1.802.203.235.366.51.366.823-.04.823-1.058 1.528-2.28 1.528z" fill="#C3C8C8"/></svg><svg viewBox="0 0 11 18" id="ok" xmlns="http://www.w3.org/2000/svg"><path d="M4.598 12.796c-1.42-.142-2.7-.478-3.797-1.302-.136-.102-.276-.201-.4-.315-.48-.443-.528-.95-.149-1.473.325-.447.87-.567 1.437-.31.11.05.214.112.315.179 2.043 1.348 4.85 1.386 6.9.06a1.9 1.9 0 01.672-.334c.49-.12.946.052 1.209.464.3.47.296.928-.074 1.293-.567.56-1.249.964-2.007 1.246-.716.267-1.501.402-2.278.49.117.123.173.184.246.254 1.055 1.019 2.114 2.033 3.166 3.054.358.348.433.78.235 1.184-.215.443-.698.734-1.171.703-.3-.02-.534-.164-.742-.365-.796-.77-1.607-1.525-2.387-2.309-.227-.228-.336-.185-.536.013-.801.792-1.615 1.572-2.434 2.348-.367.348-.805.41-1.231.212-.453-.211-.742-.656-.72-1.103.016-.302.17-.532.386-.74 1.044-1 2.085-2.005 3.127-3.008.069-.067.133-.138.233-.24z"/><path d="M5.464 9.308C2.93 9.3.852 7.282.867 4.844.882 2.38 2.961.394 5.52.4c2.564.007 4.621 2.021 4.609 4.512-.013 2.433-2.105 4.405-4.664 4.396zM7.766 4.85c-.004-1.21-1.008-2.174-2.265-2.175-1.268-.001-2.28.98-2.271 2.201.01 1.206 1.022 2.163 2.282 2.159C6.77 7.03 7.77 6.06 7.766 4.85z"/></svg><svg fill="none" viewBox="0 0 66 62" id="progress" xmlns="http://www.w3.org/2000/svg"><path d="M65.629 11.477L61.97 6.81l3.771-4.907A1.12 1.12 0 0065.834.65C65.607.251 65.155 0 64.663 0H50.542c-1.443 0-2.618 1.14-2.618 2.539v.493c0 .017-.005.031-.005.047v18.468h-4.074c-3.538 0-6.414 2.785-6.414 6.208v5.382a7.717 7.717 0 00-5.293-2.084c-4.201 0-7.619 3.315-7.619 7.388v4.751a7.572 7.572 0 00-5.012-1.885c-4.123 0-7.476 3.252-7.476 7.25v3.03a6.939 6.939 0 00-4.2-1.407h-.99C3.067 50.18 0 53.15 0 56.804v3.988C0 61.46.59 62 1.32 62h12.03l.018-.002h12.298c.036 0 .07-.007.104-.01.024.002.046.007.07.007h12.6c.045 0 .09-.008.133-.012.058.007.116.016.177.016h23.07c.729 0 1.32-.54 1.32-1.208V27.755c0-3.422-2.877-6.208-6.413-6.208H50.56v-8.022h14.12c.73 0 1.32-.54 1.32-1.208 0-.326-.14-.622-.371-.84zM2.639 56.805a4.21 4.21 0 014.201-4.209h.992a4.209 4.209 0 014.199 4.209v2.78H2.638v-2.78h.001zm21.708 2.779H14.67V48.558a4.84 4.84 0 014.837-4.835 4.841 4.841 0 014.839 4.833v11.028zm12.774-.004h-9.96V38.441a4.981 4.981 0 019.96 0v21.14zM60.5 27.756v31.828H40.07V27.756c0-2.09 1.693-3.792 3.775-3.792h5.053c.11.026.222.046.34.046.12 0 .232-.019.341-.046h7.148c2.08 0 3.773 1.701 3.773 3.792zM50.566 11.11V2.54c0-.071.027-.116.001-.123h11.556l-2.59 3.37c-.486.636-.677 1.223-.023 2.03l2.585 3.295h-11.53z" fill="#4F4F4F"/></svg><svg fill="none" viewBox="0 0 54 69" id="reliability" xmlns="http://www.w3.org/2000/svg"><path d="M53.444 9.262c-.536-.526-1.237-.526-1.613-.526l-.738.008-.356-.004C43.814 8.586 36.478 5.939 28.935.872l-.267-.18C28.1.305 27.652 0 27.003 0c-.648 0-1.087.3-1.644.681l-.3.204C17.388 6.03 9.935 8.676 2.906 8.745l-.401.001c-.817.002-1.464.004-2 .543-.528.53-.514 1.172-.5 1.794.002.14.006.303.006.49v30.623c0 1.762.089 2.708.934 4.362C6.083 56.59 14.577 64.142 26.188 69h1.078c11.865-4.967 20.482-12.397 25.61-22.087.791-1.498 1.124-2.41 1.124-4.181V11.399c.002-.92.003-1.586-.556-2.137zm-2.19 33.471c0 1.226-.173 1.729-.814 2.942-4.749 8.973-12.725 15.909-23.712 20.622C16.007 61.689 8.159 54.644 3.4 45.35c-.612-1.196-.643-1.743-.643-3.154V11.438l.177-.001c7.582-.074 15.547-2.877 23.676-8.33l.32-.217.076-.053.097.066.281.19c7.99 5.366 15.826 8.17 23.29 8.338.15.003.29.004.419.004l.162-.002v31.3h-.001z" fill="#4F4F4F"/></svg><svg fill="none" viewBox="0 0 68 67" id="responsibility" xmlns="http://www.w3.org/2000/svg"><path d="M67 36.464l-15.458-8.84c-.001-2.76-.004-5.445-.008-8.12-.003-2.898-.007-5.797-.007-8.802v-.063a1.29 1.29 0 00-.993-1.256L34.419.171a1.289 1.289 0 00-1.278-.003L16.904 9.366a1.297 1.297 0 00-.676 1.13v.004c0 3.138.009 6.038.018 8.94.006 2.663.014 5.335.015 8.181L.677 36.448a1.273 1.273 0 00-.36.286c-.197.225-.315.52-.317.842v18.002c0 .465.25.894.655 1.123l16.492 9.34a1.29 1.29 0 001.312 0l15.717-8.877 15.67 8.876a1.289 1.289 0 001.312 0l16.186-9.142A1.29 1.29 0 0068 55.776V37.718a1.296 1.296 0 00-1-1.254zM48.954 19.506c.003 2.68.007 5.36.008 8.126L35.32 35.6V20.604l13.626-7.695c0 2.23.003 4.414.006 6.597zM33.776 2.775l13.85 7.918L34.03 18.37l-13.893-7.868 13.64-7.727zm-1.038 17.829V35.57l-13.895-7.944c-.001-2.855-.01-5.523-.017-8.193-.006-2.204-.012-4.408-.015-6.717l13.927 7.888zM16.511 62.717l-13.93-7.89v-15.03l13.93 7.888v15.033zm1.292-17.266L3.908 37.583l13.64-7.725L31.354 37.8l-13.55 7.651zm1.29 2.235L32.7 40.002v15.033L19.093 62.72V47.686zm30.115 15.03l-13.91-7.878V39.624l13.91 8.053v15.04zm1.3-17.268l-13.49-7.81 13.241-7.774 13.835 7.91-13.587 7.674zm14.907 9.577L51.791 62.72V47.686l13.624-7.693v15.032z" fill="#4F4F4F"/></svg><svg fill="none" viewBox="0 0 74 74" id="study" xmlns="http://www.w3.org/2000/svg"><path d="M37.006 45.229c-.73 0-1.279-.326-2.109-.82l-4.786-2.834L1.748 24.779c-1.063-.63-1.765-1.044-1.748-2 .017-.924.74-1.318 1.378-1.665.19-.104.422-.23.69-.39 5.421-3.23 10.913-6.588 16.224-9.835C23.875 7.475 29.647 3.945 35.358.553c.49-.291.978-.553 1.561-.553.602 0 1.02.26 1.465.534l.305.187c5.6 3.327 11.291 6.788 16.796 10.135 5.628 3.423 11.448 6.963 17.17 10.359l.23.134c.472.276 1.12.653 1.115 1.51-.004.853-.657 1.226-1.09 1.471l-.284.164a9610.9 9610.9 0 00-17.08 10.153 9460.919 9460.919 0 01-16.28 9.678c-.974.58-1.521.904-2.26.904zM3.731 22.846l32.534 19.266c.287.17.584.347.743.421.173-.078.503-.275.826-.465 5.508-3.265 10.925-6.49 16.342-9.716 5.323-3.17 10.644-6.338 15.99-9.506-5.369-3.198-10.805-6.503-16.072-9.707-5.498-3.344-11.184-6.8-16.773-10.122l-.347-.211-.083-.053a9.28 9.28 0 00-.165.097c-5.697 3.383-11.461 6.909-17.037 10.318-5.222 3.194-10.619 6.495-15.958 9.678z" fill="#4F4F4F"/><path d="M36.993 62.023a1.32 1.32 0 01-.713-.207L8.527 44.928V28.713a1.337 1.337 0 012.675 0v14.714l24.455 14.881V45.326a1.337 1.337 0 012.674 0v12.97l24.467-14.89V28.694a1.337 1.337 0 012.675 0v16.215L37.826 61.733a1.327 1.327 0 01-.833.29zm23.691 11.915H48.223v-12.96c0-3.157 2.796-5.727 6.23-5.727 3.436 0 6.23 2.569 6.23 5.728v12.96h.001zm-9.787-2.672h7.112V60.979c0-1.685-1.595-3.056-3.554-3.056-1.96 0-3.557 1.371-3.557 3.056v10.287z" fill="#4F4F4F"/><path d="M54.336 57.038a1.337 1.337 0 01-1.338-1.336v-21.23l-17.35-10.666a1.335 1.335 0 01-.437-1.837 1.337 1.337 0 011.839-.438L55.673 32.98v22.723c0 .737-.598 1.335-1.337 1.335z" fill="#4F4F4F"/></svg><svg viewBox="0 0 21 12" id="vk" xmlns="http://www.w3.org/2000/svg"><path d="M18.21 7.361c.663.575 1.366 1.114 1.961 1.745.262.278.512.57.703.895.27.462.027.972-.442 1L17.514 11c-.752.055-1.352-.213-1.858-.668-.403-.364-.778-.75-1.166-1.127a2.698 2.698 0 00-.524-.412c-.398-.228-.744-.159-.972.21-.232.373-.284.785-.307 1.203-.032.607-.239.767-.929.794-1.473.063-2.873-.135-4.172-.793-1.146-.58-2.035-1.4-2.809-2.327C3.271 6.077 2.12 4.094 1.081 2.055c-.233-.459-.061-.708.51-.715a86.102 86.102 0 012.856 0c.388.002.643.199.793.523a15.172 15.172 0 001.934 3.171c.21.264.426.527.732.712.337.205.595.136.754-.196.102-.212.146-.44.169-.666.075-.78.085-1.557-.047-2.332-.082-.484-.39-.798-.937-.89-.278-.045-.236-.139-.101-.28.234-.241.454-.393.894-.393h3.296c.518.09.634.296.705.759l.003 3.238c-.006.18.101.71.465.829.292.084.484-.123.658-.285.788-.742 1.35-1.617 1.855-2.524.224-.399.416-.812.601-1.227.139-.305.356-.457.745-.451l3.174.002c.093 0 .189.002.28.016.535.079.68.283.515.745-.259.726-.765 1.33-1.26 1.935-.53.647-1.095 1.273-1.62 1.925-.481.594-.444.894.156 1.41z"/></svg></svg>