<svg width="30" height="30" viewBox="0 0 30 30" xmlns="http://www.w3.org/2000/svg">
  <path
    d="M0 14.4835H14.4829V0H0V14.4835ZM4.13749 6.20739H6.20657V4.13804C6.20657 3.56739 6.66998 3.1037 7.24145 3.1037C7.81291 3.1037 8.27632 3.56674 8.27632 4.13804V6.20739H10.3454C10.9155 6.20739 11.3796 6.67044 11.3796 7.24174C11.3796 7.81239 10.9162 8.27609 10.3454 8.27609H8.27632V10.3441C8.27632 10.9154 7.81291 11.3791 7.24145 11.3791C6.66998 11.3791 6.20657 10.9154 6.20657 10.3441V8.27609H4.13749C3.56669 8.27609 3.10262 7.81305 3.10262 7.24174C3.10328 6.67109 3.56669 6.20739 4.13749 6.20739ZM15.5171 0V14.4835H30V0H15.5171ZM25.8625 8.27609H19.6553C19.0845 8.27609 18.6204 7.81305 18.6204 7.24174C18.6204 6.67044 19.0838 6.20739 19.6553 6.20739H25.8625C26.4333 6.20739 26.8967 6.67044 26.8967 7.24174C26.896 7.81305 26.4333 8.27609 25.8625 8.27609ZM15.5171 30H30V15.5172H15.5171V30ZM19.6546 20.1737H25.8618C26.4326 20.1737 26.896 20.6374 26.896 21.2074C26.896 21.778 26.4333 22.2417 25.8618 22.2417H19.6546C19.0838 22.2417 18.6197 21.778 18.6197 21.2074C18.6204 20.6374 19.0838 20.1737 19.6546 20.1737ZM19.6546 23.2754H25.8618C26.4326 23.2754 26.896 23.7391 26.896 24.3104C26.896 24.8811 26.4333 25.3448 25.8618 25.3448H19.6546C19.0838 25.3448 18.6197 24.8811 18.6197 24.3104C18.6204 23.7391 19.0838 23.2754 19.6546 23.2754ZM0 30H14.4829V15.5172H0V30ZM3.92336 20.9041C3.52028 20.5004 3.52028 19.8463 3.92336 19.4426C4.32644 19.0383 4.98342 19.0383 5.3865 19.4426L7.24145 21.2967L9.0964 19.4426C9.49947 19.0383 10.1558 19.0383 10.5589 19.4426C10.9626 19.8463 10.9626 20.5004 10.5589 20.9041L8.70392 22.7596L10.5589 24.6143C10.9626 25.018 10.9626 25.6735 10.5589 26.0772C10.3573 26.2794 10.0928 26.3804 9.82696 26.3804C9.56245 26.3804 9.29727 26.2794 9.09573 26.0772L7.24078 24.223L5.38583 26.0772C5.18363 26.2794 4.91913 26.3804 4.65395 26.3804C4.38877 26.3804 4.12425 26.2794 3.92205 26.0772C3.51897 25.6735 3.51897 25.018 3.92205 24.6143L5.77699 22.7596L3.92336 20.9041Z" />
</svg>
