<svg width="26" height="30" viewBox="0 0 26 30" xmlns="http://www.w3.org/2000/svg">
<path fill-rule="evenodd" clip-rule="evenodd" d="M21.924 29.596H3.67398C1.64798 29.596 0 27.976 0 25.985V3.612C0 1.62 1.64798 0 3.67398 0H21.924C23.95 0 25.599 1.62 25.599 3.612V25.985C25.599 27.976 23.95 29.596 21.924 29.596ZM3.673 1.599C2.529 1.599 1.59799 2.502 1.59799 3.612V7.2959H23.998V3.612C23.998 2.503 23.067 1.599 21.923 1.599H3.673ZM23.998 9.2959V25.985C23.998 27.095 23.068 27.997 21.923 27.997H3.673C2.529 27.997 1.59799 27.094 1.59799 25.985V9.2959H23.998ZM18.0156 17.3018H20.2446V23.7628H18.0156V17.3018ZM7.58835 13.061H5.35938V15.29H7.58835V13.061ZM9.59375 13.061H11.8238V15.29H9.59375V13.061ZM16.0024 13.061H13.7734V15.29H16.0024V13.061ZM5.35938 17.2969H7.58835V19.5259H5.35938V17.2969ZM11.8238 17.2969H9.59375V19.5259H11.8238V17.2969ZM13.7734 17.2969H16.0024V19.5259H13.7734V17.2969ZM20.2446 13.061H18.0156V15.29H20.2446V13.061ZM5.35938 21.533H7.58835V23.762H5.35938V21.533ZM11.8238 21.5332H9.59375V23.7622H11.8238V21.5332ZM13.7734 21.5332H16.0024V23.7622H13.7734V21.5332Z"/>
</svg>
