<svg width="22" height="24" viewBox="0 0 22 24" xmlns="http://www.w3.org/2000/svg">
  <path fill-rule="evenodd" clip-rule="evenodd"
    d="M11.7333 0H10.2667C9.86167 0 9.53333 0.314719 9.53333 0.703126V2.85938H0.733333C0.327996 2.85938 0 3.17386 0 3.56251V17.6719C0 18.0605 0.327996 18.375 0.733333 18.375H21.2667C21.672 18.375 22 18.0605 22 17.6719V3.56251C22 3.17386 21.672 2.85938 21.2667 2.85938H12.4667V0.703126C12.4667 0.314719 12.1383 0 11.7333 0ZM13.2 6.37501V7.07814H16.8667C17.272 7.07814 17.6 7.39262 17.6 7.78126V11.2969H18.3333C18.7387 11.2969 19.0667 11.6114 19.0667 12V14.8125C19.0667 15.2012 18.7387 15.5156 18.3333 15.5156H15.4C14.9947 15.5156 14.6667 15.2012 14.6667 14.8125V12C14.6667 11.6114 14.9947 11.2969 15.4 11.2969H16.1333V8.48439H13.2V9.18751C13.2 9.57616 12.872 9.89064 12.4667 9.89064H11.7333V11.2969H12.4667C12.872 11.2969 13.2 11.6114 13.2 12V14.8125C13.2 15.2012 12.872 15.5156 12.4667 15.5156H9.53333C9.128 15.5156 8.8 15.2012 8.8 14.8125V12C8.8 11.6114 9.128 11.2969 9.53333 11.2969H10.2667V9.89064H9.53333C9.128 9.89064 8.8 9.57616 8.8 9.18751V8.48439H5.86667V11.2969H6.6C7.00534 11.2969 7.33333 11.6114 7.33333 12V14.8125C7.33333 15.2012 7.00534 15.5156 6.6 15.5156H3.66667C3.26133 15.5156 2.93333 15.2012 2.93333 14.8125V12C2.93333 11.6114 3.26133 11.2969 3.66667 11.2969H4.4V7.78126C4.4 7.39262 4.728 7.07814 5.13333 7.07814H8.8V6.37501C8.8 5.98637 9.128 5.67188 9.53333 5.67188H12.4667C12.872 5.67188 13.2 5.98637 13.2 6.37501ZM4.22853 19.7812L3.05515 22.5937H2.19818C1.79284 22.5937 1.46484 22.9082 1.46484 23.2969C1.46484 23.6855 1.79284 24 2.19818 24H5.24464C5.54472 24 5.814 23.8249 5.92571 23.5578L6.32792 22.5937H15.6684L16.0707 23.5578C16.1824 23.8249 16.4516 24 16.7517 24H19.7982C20.2035 24 20.5315 23.6855 20.5315 23.2969C20.5315 22.9082 20.2035 22.5937 19.7982 22.5937H18.9412L17.7678 19.7812H14.4951L15.0818 21.1874H6.91464L7.50135 19.7812H4.22853ZM11.7362 7.07829H10.2695V8.48456H11.7362V7.07829ZM5.86901 12.7031H4.40234V14.1094H5.86901V12.7031ZM10.2695 12.7031H11.7362V14.1094H10.2695V12.7031ZM17.6034 12.7031H16.1367V14.1094H17.6034V12.7031Z" />
</svg>
