<svg width="18" height="18" viewBox="0 0 18 18" xmlns="http://www.w3.org/2000/svg">
  <path
    d="M0 8.69009H8.68974V0H0V8.69009ZM2.4825 3.72444H3.72394V2.48283C3.72394 2.14044 4.00199 1.86222 4.34487 1.86222C4.68775 1.86222 4.96579 2.14004 4.96579 2.48283V3.72444H6.20724C6.54933 3.72444 6.82777 4.00226 6.82777 4.34505C6.82777 4.68744 6.54972 4.96565 6.20724 4.96565H4.96579V6.20648C4.96579 6.54926 4.68775 6.82748 4.34487 6.82748C4.00199 6.82748 3.72394 6.54926 3.72394 6.20648V4.96565H2.4825C2.14001 4.96565 1.86157 4.68783 1.86157 4.34505C1.86197 4.00265 2.14001 3.72444 2.4825 3.72444ZM9.31026 0V8.69009H18V0H9.31026ZM15.5175 4.96565H11.7932C11.4507 4.96565 11.1722 4.68783 11.1722 4.34505C11.1722 4.00226 11.4503 3.72444 11.7932 3.72444H15.5175C15.86 3.72444 16.138 4.00226 16.138 4.34505C16.1376 4.68783 15.86 4.96565 15.5175 4.96565ZM9.31026 18H18V9.3103H9.31026V18ZM11.7928 12.1042H15.5171C15.8596 12.1042 16.1376 12.3824 16.1376 12.7244C16.1376 13.0668 15.86 13.345 15.5171 13.345H11.7928C11.4503 13.345 11.1718 13.0668 11.1718 12.7244C11.1722 12.3824 11.4503 12.1042 11.7928 12.1042ZM11.7928 13.9653H15.5171C15.8596 13.9653 16.1376 14.2435 16.1376 14.5863C16.1376 14.9287 15.86 15.2069 15.5171 15.2069H11.7928C11.4503 15.2069 11.1718 14.9287 11.1718 14.5863C11.1722 14.2435 11.4503 13.9653 11.7928 13.9653ZM0 18H8.68974V9.3103H0V18ZM2.35402 12.5425C2.11217 12.3003 2.11217 11.9078 2.35402 11.6656C2.59586 11.423 2.99005 11.423 3.2319 11.6656L4.34487 12.778L5.45784 11.6656C5.69968 11.423 6.09348 11.423 6.33532 11.6656C6.57756 11.9078 6.57756 12.3003 6.33532 12.5425L5.22235 13.6557L6.33532 14.7686C6.57756 15.0108 6.57756 15.4041 6.33532 15.6463C6.2144 15.7676 6.05569 15.8283 5.89618 15.8283C5.73747 15.8283 5.57836 15.7676 5.45744 15.6463L4.34447 14.5338L3.2315 15.6463C3.11018 15.7676 2.95148 15.8283 2.79237 15.8283C2.63326 15.8283 2.47455 15.7676 2.35323 15.6463C2.11138 15.4041 2.11138 15.0108 2.35323 14.7686L3.4662 13.6557L2.35402 12.5425Z" />
</svg>
