<svg width="72" height="72" viewBox="0 0 72 72" fill="none" xmlns="http://www.w3.org/2000/svg">
<path d="M71.2869 51.01C71.234 50.9639 71.1696 50.9102 71.0975 50.8406C67.0637 47.0064 62.902 45.5319 58.725 46.464C58.0396 46.6166 57.557 46.8171 56.9417 47.2051L42.4379 56.362C42.0139 52.4469 39.1328 48.399 36.1286 47.1514L17.7409 42.2278L17.515 42.1628C16.8286 41.9604 16.1826 41.8427 15.2059 42.4576L0.829893 51.5345C0.633778 51.656 0.176181 51.9413 0.0367859 52.5524C-0.102609 53.1625 0.187715 53.6088 0.348259 53.8565L9.85116 68.9502C9.94537 69.1027 10.2328 69.5669 10.8625 69.7035C11.4893 69.84 11.9546 69.5368 12.119 69.4285C12.7669 69.0218 13.4158 68.6131 14.0619 68.2007C18.3696 68.5585 23.0331 69.3268 27.5438 70.0697C31.8881 70.7854 36.3795 71.5254 40.6219 71.9134L41.6304 71.9972C41.6678 71.9991 41.7044 72 41.7399 72C42.0764 72 42.3571 71.9171 42.6705 71.7232L70.9649 53.8574C71.3042 53.6437 71.9348 53.2454 71.9954 52.446C72.054 51.671 71.5359 51.2247 71.2869 51.01ZM2.3344 53.945L1.53648 52.768L2.44111 53.8649C2.40842 53.8941 2.37189 53.9205 2.3344 53.945ZM41.4294 69.146C41.2401 69.13 41.0535 69.115 40.8738 69.0999C36.7515 68.7242 32.313 67.9926 28.0206 67.2855C23.3859 66.5209 18.5936 65.7318 14.1147 65.3712C14.0224 65.3637 13.9359 65.3599 13.8542 65.3599C13.288 65.3599 12.9602 65.535 12.59 65.7685C12.268 65.9738 11.9459 66.1791 11.622 66.3834L3.3765 53.2868L16.7007 44.8737L35.0836 49.7878C37.3081 50.7765 39.5942 54.4318 39.6019 57.3507L22.0439 53.3885C21.2671 53.2134 20.4942 53.687 20.3144 54.4468C20.1347 55.2067 20.6192 55.9656 21.395 56.1408L40.4729 60.4457C40.8709 60.538 41.2718 60.4599 41.5919 60.2555L58.501 49.5798C58.8317 49.3717 59.0086 49.2973 59.3624 49.2182C62.3243 48.5572 65.2593 49.5242 68.3154 52.1691L41.4294 69.146Z" fill="#4F4F4F"/>
<path d="M27.2323 38.8692C27.6291 38.8692 28.0232 38.6995 28.2973 38.3713C32.4465 33.3939 39.6365 30.422 47.5306 30.422C55.4313 30.422 62.6222 33.3939 66.7668 38.3703C67.255 38.9568 68.128 39.0379 68.7159 38.5483C69.3038 38.0596 69.384 37.1873 68.894 36.6009C65.6141 32.6627 60.6879 29.8467 55.0261 28.518C59.7198 25.9315 62.9102 20.9311 62.9102 15.1958C62.9102 6.8169 56.105 0 47.7401 0C39.3725 0 32.5655 6.8169 32.5655 15.1958C32.5655 20.885 35.7079 25.8467 40.3416 28.4506C34.5543 29.7489 29.509 32.5926 26.1682 36.6009C25.6791 37.1882 25.7585 38.0605 26.3463 38.5492C26.6057 38.7641 26.9194 38.8692 27.2323 38.8692ZM35.335 15.1958C35.335 8.34202 40.9008 2.76623 47.7411 2.76623C54.5795 2.76623 60.1425 8.34202 60.1425 15.1958C60.1425 22.0496 54.5795 27.6254 47.7411 27.6254C40.9008 27.6263 35.335 22.0496 35.335 15.1958Z" fill="#4F4F4F"/>
</svg>
