<svg width="10" height="17" viewBox="0 0 10 17" xmlns="http://www.w3.org/2000/svg">
<path d="M9.66125 0.127603L7.50108 0.125122C5.0732 0.125122 3.50519 1.74366 3.50519 4.24649V6.14781H1.33268C1.14516 6.14781 0.992188 6.30036 0.992188 6.49136V9.24473C0.992188 9.432 1.14516 9.5858 1.33268 9.5858H3.50519V16.5362C3.50519 16.726 3.65693 16.8748 3.84445 16.8748H6.67945C6.86697 16.8748 7.01871 16.726 7.01871 16.5362V9.5858H9.56009C9.74637 9.5858 9.89935 9.432 9.89935 9.24473V6.49136C9.89935 6.39834 9.86357 6.31276 9.80065 6.24951C9.73527 6.18377 9.65015 6.14781 9.56009 6.14781H7.01871V4.53795C7.01871 3.76279 7.20253 3.37087 8.20551 3.37087H9.66125C9.84877 3.37087 10.0005 3.21708 10.0005 3.02856V0.469913C10.0005 0.280154 9.84877 0.127603 9.66125 0.127603Z"/>
</svg>
