<svg width="39" height="25" viewBox="0 0 39 25" xmlns="http://www.w3.org/2000/svg">
<path d="M28.202 0C23.192 0 17.859 1.615 17.859 4.686V5.33301C15.516 4.36301 12.93 3.87799 10.343 3.87799C5.33399 3.87799 0 5.494 0 8.565V20.12C0 23.191 5.33399 24.808 10.343 24.808C14.142 24.808 17.455 23.919 19.233 22.545C21.09 23.999 24.727 24.808 28.121 24.808C33.131 24.808 38.464 23.192 38.464 20.12V4.60599C38.545 1.61499 33.212 0 28.202 0ZM10.426 5.414C13.496 5.414 16.323 6.05999 17.941 7.02899V9.93799C16.324 10.908 13.497 11.554 10.426 11.554C5.01199 11.554 1.698 9.776 1.698 8.483C1.698 7.191 5.01199 5.414 10.426 5.414ZM1.77798 11.069C3.63698 12.443 7.11199 13.17 10.425 13.17C13.01 13.251 15.596 12.767 17.94 11.716V13.737C16.323 14.707 13.496 15.352 10.425 15.352C5.01099 15.352 1.69699 13.576 1.69699 12.283V11.07H1.77798V11.069ZM1.77798 14.948C3.71698 16.321 7.19199 17.049 10.507 17.049C13.093 17.13 15.597 16.646 18.021 15.595V17.615C16.406 18.586 13.578 19.231 10.507 19.231C5.09199 19.231 1.77798 17.455 1.77798 16.161V14.948ZM10.426 23.109C5.01199 23.109 1.698 21.331 1.698 20.039V18.827C3.637 20.2 7.11199 20.928 10.426 20.928C13.011 21.009 15.597 20.524 17.941 19.474V20.12C17.941 20.524 18.021 20.929 18.263 21.332C16.971 22.221 14.143 23.109 10.426 23.109ZM36.929 20.119C36.929 21.413 33.616 23.19 28.202 23.19C22.788 23.19 19.474 21.413 19.474 20.119V18.827C21.414 20.2 24.889 20.928 28.202 20.928C31.515 20.928 34.909 20.2 36.929 18.827V20.119ZM36.929 16.242C36.929 17.534 33.616 19.311 28.202 19.311C22.788 19.311 19.474 17.534 19.474 16.242V14.948C21.414 16.321 24.889 17.049 28.202 17.049C31.515 17.049 34.909 16.321 36.929 14.948V16.242ZM36.929 12.362C36.929 13.655 33.616 15.432 28.202 15.432C22.788 15.432 19.556 13.655 19.556 12.362V11.069C21.494 12.443 24.969 13.17 28.202 13.17C31.435 13.17 34.909 12.443 36.929 11.069V12.362ZM36.929 8.483C36.929 9.776 33.616 11.554 28.202 11.554C22.788 11.554 19.474 9.776 19.474 8.483V7.19101C21.414 8.56401 24.889 9.29199 28.202 9.29199C31.515 9.29199 34.909 8.56401 36.929 7.19101V8.483ZM28.202 7.67599C22.788 7.67599 19.474 5.89799 19.474 4.60599C19.474 3.31299 22.787 1.53601 28.202 1.53601C33.615 1.53601 36.929 3.31299 36.929 4.60599C36.929 5.89699 33.615 7.67599 28.202 7.67599Z" />
</svg>
