<svg width="16" height="17" viewBox="0 0 16 17" xmlns="http://www.w3.org/2000/svg">
<path fill-rule="evenodd" clip-rule="evenodd" d="M15.8894 4.10684C15.6951 2.5137 14.8326 1.50204 13.3246 1.17785C12.6995 1.04303 12.0447 1.00495 11.4022 0.99775C9.47262 0.975108 7.54408 0.983341 5.61554 0.994662C5.11901 0.996721 4.62146 1.03583 4.12802 1.09346C3.13291 1.21079 2.28172 1.60598 1.69884 2.46224C1.26091 3.10444 1.09951 3.83823 1.07278 4.59878C1.02652 5.89346 1.01213 7.18917 0.984375 8.48386C0.994655 8.48386 1.00494 8.48489 1.01419 8.48489C1.01419 9.28146 1.00082 10.0791 1.0183 10.8746C1.03269 11.5477 1.04914 12.2249 1.12624 12.8917C1.31025 14.4859 2.17892 15.4965 3.68803 15.8218C4.31408 15.9566 4.96892 15.9947 5.61143 16.0029C7.53071 16.0245 9.45103 16.0173 11.3724 16.005C11.8761 16.0029 12.3839 15.9679 12.8866 15.9062C14.4739 15.7127 15.4813 14.8471 15.8051 13.3333C15.9398 12.7065 15.9778 12.0489 15.985 11.4046C16.0076 9.47802 16.0004 7.55247 15.9891 5.62588C15.984 5.11953 15.9501 4.6101 15.8894 4.10684ZM8.50321 13.2211C5.92497 13.219 3.80317 11.0897 3.80111 8.50341C3.79905 5.91713 5.91777 3.78574 8.49704 3.77957C11.0753 3.77442 13.2022 5.89655 13.2115 8.48386C13.2207 11.0804 11.0907 13.2231 8.50321 13.2211ZM13.3996 4.70272C12.8085 4.70787 12.2965 4.20152 12.2914 3.60461C12.2852 3.00461 12.7838 2.50238 13.3852 2.50032C13.9938 2.49724 14.4831 2.98197 14.4862 3.59123C14.4903 4.19741 14 4.69758 13.3996 4.70272ZM8.53919 5.44475C6.84915 5.42725 5.48087 6.76928 5.46031 8.46121C5.44078 10.1573 6.7741 11.5322 8.46003 11.5559C10.1604 11.5785 11.5379 10.2303 11.5523 8.52708C11.5667 6.83206 10.2251 5.46121 8.53919 5.44475Z" />
</svg>
