<svg width="68" height="17" viewBox="0 0 68 17" fill="none" xmlns="http://www.w3.org/2000/svg">
<path d="M13.6016 8.05038C13.6016 7.11414 14.1559 6.375 14.8951 6.375C15.5972 6.375 16.1516 7.11414 16.1516 8.05038C16.1516 8.98662 15.5972 9.775 14.8581 9.775C14.1559 9.775 13.6016 9.03586 13.6016 8.05038Z" fill="#C3C8C8"/>
<path d="M31.1866 5.26645C30.7323 3.55756 29.6724 2.36876 28.0447 1.70006C27.3255 1.40286 26.5684 1.32856 25.8113 1.29141C24.6378 1.25426 23.5022 1.29141 22.3287 1.29141C22.1016 1.29141 22.1016 1.29141 22.1016 1.51431C22.1016 3.26036 22.1016 5.04355 22.1016 6.78959C22.1016 8.57279 22.1016 10.3188 22.1016 12.102C22.1016 12.1392 22.1016 12.2135 22.1016 12.2506C22.1016 12.2878 22.1394 12.3249 22.1773 12.3249C22.2151 12.3249 22.2908 12.3249 22.3287 12.3249C22.518 12.3249 22.7072 12.3249 22.9343 12.3249H24.6378C24.6757 12.3249 24.6757 12.3249 24.7135 12.3249C25.4706 12.3249 26.3791 12.3249 26.6819 12.2878C27.439 12.1763 28.1582 11.9906 28.8396 11.5819C30.5052 10.5418 31.338 9.05575 31.4516 7.12396C31.4516 6.4924 31.338 5.86085 31.1866 5.26645ZM28.3096 8.83286C27.8175 9.53871 27.0983 9.94732 26.2277 10.0588C26.0005 10.0959 25.1299 10.0959 24.4864 10.0959C24.4864 7.97841 24.4864 5.86085 24.4864 3.74331C24.4864 3.70615 24.4864 3.669 24.4864 3.63186C24.4864 3.48325 24.4864 3.48325 24.6378 3.48325C24.8649 3.48325 25.1299 3.5204 25.357 3.5204C25.7356 3.5204 26.0762 3.55756 26.4169 3.63186C27.969 3.96621 28.8396 5.155 28.9532 6.4924C29.0667 7.34685 28.8018 8.127 28.3096 8.83286Z" fill="#C3C8C8"/>
<path d="M7.3246 12.325L5.50413 12.2693C4.81638 12.2693 4.25 11.9348 4.25 11.4611C4.25 10.9873 4.81638 10.625 5.46368 10.625H7.28415C7.97191 10.625 8.49781 11.0152 8.49781 11.4611C8.53826 11.9627 8.01236 12.325 7.3246 12.325Z" fill="#C3C8C8"/>
<path d="M5.83127 10.063C5.64174 10.063 5.45215 10.063 5.26261 10.0259C3.55658 9.72924 2.53295 8.43143 2.45713 7.05946C2.3813 6.13244 2.64669 5.31668 3.25328 4.64922C3.85987 3.98178 4.61811 3.61097 5.52802 3.53681C5.90714 3.49973 6.32417 3.53681 6.70328 3.46265C7.38566 3.35141 7.87855 3.05476 8.14389 2.4244C8.29557 2.09067 8.37139 1.75695 8.48511 1.38614C8.52307 1.31198 8.48511 1.2749 8.40929 1.2749C8.37139 1.2749 8.37139 1.2749 8.33348 1.2749C7.46152 1.2749 6.58951 1.2749 5.71755 1.2749C5.11096 1.31198 4.50437 1.38614 3.89778 1.57155C2.49504 2.01651 1.39559 2.86936 0.713179 4.16718C0.371969 4.79755 0.144497 5.465 0.0686734 6.1695C-0.0450626 6.68867 -0.00715066 7.24488 0.106585 7.764C0.371969 9.0247 0.94065 10.063 1.92636 10.9158C2.98789 11.8057 4.23899 12.2507 5.64174 12.2878C6.21039 12.3249 6.74119 12.3249 7.30984 12.3249L7.80273 10.2113C7.76478 10.1742 6.43789 10.063 5.83127 10.063Z" fill="#C3C8C8"/>
<path d="M19.4392 12.0894C19.4392 9.65443 19.4392 7.21946 19.4392 4.78446C19.4392 4.35245 19.4025 3.92043 19.2925 3.48842C18.9992 2.23165 18.3392 1.32835 17.2392 0.778515C16.7625 0.542871 16.2492 0.425049 15.7359 0.425049C15.6992 0.425049 15.6992 0.425049 15.6625 0.425049H14.0492C14.0126 0.425049 13.9759 0.425049 13.9392 0.425049C13.4259 0.425049 12.8759 0.542871 12.3992 0.778515C11.2992 1.32835 10.6392 2.23165 10.3459 3.48842C10.2359 3.92043 10.1992 4.35245 10.1992 4.78446C10.1992 7.21946 10.1992 9.65443 10.1992 12.0894C10.1992 12.1287 10.1992 12.1287 10.1992 12.168C10.1992 12.2465 10.2359 12.2858 10.3092 12.2858C10.3459 12.2858 10.3826 12.2858 10.4192 12.2858C11.0792 12.2858 11.7392 12.2858 12.3992 12.2858C12.4359 12.2858 12.4725 12.2858 12.5092 12.2858C12.5826 12.2858 12.5826 12.2465 12.5826 12.2073V4.35245C12.5826 3.40987 13.2792 2.66367 14.1592 2.66367H15.5892C15.9925 2.66367 16.3592 2.82076 16.6159 3.09568L16.6526 3.13495C16.6892 3.17423 16.7259 3.2135 16.7259 3.25278C16.7625 3.29205 16.7625 3.29205 16.7992 3.33132C17.0192 3.60624 17.1292 3.95971 17.1292 4.35245V8.27985C17.1292 9.53664 17.1292 10.7934 17.1292 12.0502V12.2073C17.1292 12.2858 17.1659 12.325 17.2392 12.325C17.2759 12.325 17.3126 12.325 17.3492 12.325C18.0092 12.325 18.6692 12.325 19.3292 12.325C19.3659 12.325 19.4025 12.325 19.4392 12.325C19.5126 12.325 19.5492 12.2858 19.5492 12.2073C19.4392 12.1287 19.4392 12.1287 19.4392 12.0894Z" fill="#C3C8C8"/>
<path d="M60.189 10.843C60.189 11.5899 60.2298 12.3368 60.1482 13.0837C60.0671 14.1451 59.6201 15.0492 58.7668 15.7175C58.2388 16.1106 57.6291 16.3072 57.0201 16.4251C55.679 16.7003 54.3384 16.5823 53.0382 16.1892H52.9975C52.8757 16.1499 52.8757 16.1106 52.9163 16.032C53.0382 15.6782 53.1194 15.2851 53.2413 14.9313C53.282 14.7347 53.3632 14.5382 53.4038 14.3809C53.4445 14.3023 53.4851 14.263 53.5663 14.3023C54.0948 14.3809 54.6228 14.4989 55.1509 14.5382C55.6789 14.5775 56.1668 14.5382 56.654 14.3809C57.3855 14.1451 57.8325 13.7127 57.9951 12.9658C57.9951 12.8872 58.0354 12.7692 58.0354 12.6906C58.0762 11.354 58.0762 10.0175 58.0354 8.68094C57.9951 7.46232 57.0201 6.59751 55.7605 6.71542C55.0291 6.75475 54.4194 7.26575 54.2166 7.97337C54.054 8.5237 54.054 9.07403 54.2166 9.62441C54.4602 10.3713 55.0699 10.843 55.9231 10.8823C56.126 10.8823 56.3294 10.9216 56.4914 10.9609C57.0603 11.1182 57.3447 11.472 57.4263 12.0223C57.4671 12.2975 57.3855 12.4547 57.1011 12.612C56.3696 13.0051 55.6387 13.0837 54.8665 12.8478C53.2413 12.3761 52.2256 11.354 51.9411 9.74231C51.6974 8.44508 51.9411 7.18713 52.7944 6.12577C53.4038 5.33956 54.2166 4.90715 55.1917 4.74991C56.0042 4.63197 56.7759 4.63197 57.5481 4.90715C59.092 5.41818 59.9861 6.47956 60.2297 8.01265C60.3108 8.5237 60.3108 9.07403 60.3516 9.58508C60.189 9.97817 60.189 10.4106 60.189 10.843Z" fill="#C3C8C8"/>
<path d="M34.9526 10.1379C34.9526 10.2166 35.0332 10.2559 35.0736 10.3346C35.7592 11.0428 36.6062 11.2789 37.5742 10.9641C37.6952 10.9248 37.8565 10.8855 37.9775 10.8461C38.7438 10.61 39.6311 10.8461 40.1554 11.4363C40.2764 11.5936 40.2764 11.5543 40.1554 11.7117C39.3891 12.538 38.4615 12.9708 37.3322 13.1281C36.1625 13.2855 35.0736 13.0495 34.1459 12.3806C33.0569 11.633 32.4923 10.61 32.3309 9.351C32.1696 7.89524 32.6536 6.63618 33.8233 5.69189C35.1542 4.59023 36.6465 4.43285 38.2598 4.98368C38.6228 5.10171 38.9858 5.29844 39.3085 5.53451C40.0748 6.08534 40.4781 6.79355 40.6797 7.65913C40.7605 7.97393 40.8008 8.28868 40.8008 8.64276C40.8008 8.8395 40.8008 8.8395 40.5991 8.87887C38.7438 9.31163 36.8482 9.70513 34.9929 10.1379C34.9929 10.0986 34.9526 10.0986 34.9526 10.1379ZM34.5492 8.87887C34.5896 8.91819 34.6299 8.87887 34.6299 8.87887C35.1542 8.76081 35.7189 8.64276 36.2432 8.48538C36.9692 8.328 37.7355 8.13131 38.4615 7.97393C38.5421 7.97393 38.5825 7.93456 38.5422 7.85587C38.3405 7.26568 37.9371 6.83293 37.2515 6.67555C36.8079 6.59681 36.3642 6.59681 35.9609 6.71487C35.1946 6.95093 34.7509 7.50175 34.5492 8.21C34.5492 8.48538 34.5089 8.68213 34.5492 8.87887Z" fill="#C3C8C8"/>
<path d="M61.2389 9.72413C61.1992 8.96643 61.2389 8.20869 61.2389 7.45095C61.2781 6.04372 62.3454 4.99732 63.8086 4.74474C64.6781 4.60041 65.5083 4.67258 66.2598 5.03341C67.2875 5.50248 67.841 6.2963 67.9595 7.34268C67.9992 7.7035 67.9992 8.06437 67.9992 8.42518C67.9992 9.65196 67.9992 10.8788 67.9992 12.1056C67.9992 12.1417 67.9992 12.1417 67.9992 12.1778C67.9992 12.3582 67.9992 12.3221 67.841 12.3221C67.2478 12.3221 66.6551 12.3221 66.0619 12.3221C65.8248 12.3221 65.8248 12.3582 65.8248 12.1056C65.8248 10.7706 65.8248 9.47158 65.8248 8.13653C65.8248 7.84783 65.7851 7.59528 65.7063 7.30663C65.5877 6.8736 65.2316 6.62105 64.7574 6.58494C64.5992 6.58494 64.441 6.58494 64.2828 6.62105C63.8478 6.69321 63.6107 6.94576 63.4922 7.30663C63.4133 7.59528 63.3736 7.84783 63.3736 8.13653C63.3736 9.47158 63.3736 10.7706 63.3736 12.1056C63.3736 12.3221 63.4133 12.286 63.1366 12.3221C62.5433 12.3221 61.9501 12.3221 61.3574 12.3221C61.1992 12.3221 61.1992 12.3221 61.1992 12.1778C61.2389 11.3479 61.2389 10.518 61.2389 9.72413Z" fill="#C3C8C8"/>
<path d="M44.6777 12.3204C43.7849 12.3204 42.9697 11.9898 42.3099 11.4755C42.0382 11.2551 41.8441 10.998 41.6888 10.6673C41.6112 10.5204 41.65 10.4102 41.7664 10.3C42.1934 9.8592 42.9309 9.78574 43.4743 10.0796C43.6296 10.1531 43.7461 10.2633 43.9014 10.3368C44.2119 10.5204 44.5224 10.5939 44.8718 10.5204C45.1435 10.4469 45.2987 10.3 45.3375 10.0428C45.4152 9.82244 45.3375 9.6388 45.1047 9.49187C44.8718 9.30818 44.6388 9.16124 44.3672 9.05102C43.979 8.86737 43.5908 8.68368 43.1639 8.50004C43.0086 8.42657 42.8921 8.35311 42.7368 8.27964C42.3487 8.02248 42.1158 7.69185 42.0382 7.21429C41.9994 6.84696 41.9994 6.47962 42.1158 6.11228C42.3487 5.3776 42.8921 4.97352 43.6685 4.78984C44.406 4.60617 45.1823 4.64291 45.9198 4.90004C46.8126 5.19392 47.2784 5.81841 47.4725 6.66332V6.70002C47.5113 7.03065 47.5501 6.99389 47.2007 7.06736C46.8514 7.14083 46.502 7.10412 46.1527 6.95718C45.8422 6.81025 45.5317 6.66332 45.2211 6.47962C45.1047 6.40616 44.9882 6.36945 44.8329 6.33269C44.6777 6.29593 44.5224 6.33269 44.3672 6.40616C44.1342 6.55309 44.0954 6.77349 44.2507 6.99389C44.3284 7.10412 44.4448 7.17758 44.5612 7.25105C44.7553 7.36128 44.9106 7.43474 45.1047 7.50821C45.4152 7.65514 45.7257 7.80208 46.0363 7.94901C46.308 8.05919 46.5408 8.24288 46.7738 8.38981C47.2396 8.72044 47.5113 9.16124 47.5889 9.71227C47.6277 10.1898 47.5501 10.6306 47.3172 11.0714C47.1231 11.4021 46.8514 11.6592 46.4632 11.8429C45.9586 12.1735 45.3375 12.3571 44.6777 12.3204Z" fill="#C3C8C8"/>
<path d="M48.453 8.51759C48.453 7.3353 48.453 6.15296 48.453 4.93368C48.453 4.89673 48.453 4.85979 48.453 4.82284C48.453 4.67505 48.453 4.67505 48.638 4.67505C48.9618 4.67505 49.2393 4.67505 49.563 4.67505C49.9793 4.67505 50.3956 4.67505 50.8119 4.67505C50.9969 4.67505 50.9969 4.67505 50.9969 4.82284C50.9969 5.08147 50.9969 5.30316 50.9969 5.56179C50.9969 7.74169 50.9969 9.92162 50.9969 12.1015C50.9969 12.3601 51.0432 12.3232 50.7194 12.3232C50.0256 12.3232 49.3318 12.3232 48.638 12.3232C48.4067 12.3232 48.453 12.3232 48.453 12.1754C48.453 10.9562 48.453 9.73686 48.453 8.51759Z" fill="#C3C8C8"/>
<path d="M48.4492 2.10041C48.4492 1.16418 49.0032 0.425049 49.705 0.425049C50.4067 0.425049 51.0346 1.16418 50.9977 2.10041C50.9977 3.03664 50.4067 3.82505 49.705 3.82505C49.0402 3.77577 48.4492 3.03664 48.4492 2.10041Z" fill="#C3C8C8"/>
<path d="M60.3516 9.5689C60.3516 9.02038 60.3516 8.51102 60.2295 8.00165C59.9445 6.47361 59.0487 5.41574 57.5425 4.90638C56.7693 4.63212 55.9955 4.63212 55.1814 4.74966C54.2043 4.90638 53.39 5.33737 52.7794 6.12099C51.9245 7.21805 51.7209 8.43266 51.9245 9.72562C52.2094 11.3321 53.2272 12.39 54.8555 12.8209C55.0593 12.8601 55.2626 12.8993 55.4664 12.9385C55.6293 12.9776 55.7922 12.9776 55.9546 12.9776C56.8505 12.9776 57.6646 12.625 58.0716 12.1549C58.0716 12.3508 58.0716 12.5075 58.0716 12.7034C58.0716 12.7818 58.0716 12.8993 58.0313 12.9776C57.9087 13.7221 57.4205 14.1531 56.6875 14.3882C56.1993 14.5449 55.7105 14.5841 55.1814 14.5449C54.6523 14.5057 54.1226 14.3882 53.5936 14.3098C53.5122 14.3098 53.4715 14.3098 53.4307 14.3882C53.39 14.5841 53.3086 14.78 53.2679 14.9367C53.1458 15.2893 53.0644 15.6811 52.9422 16.0338C52.9015 16.1513 52.9422 16.1905 53.0236 16.1905H53.0644C54.3673 16.5823 55.7105 16.6999 57.0543 16.4256C57.7054 16.3081 58.3163 16.1121 58.8045 15.7203C59.7004 15.0542 60.1074 14.1531 60.1886 13.0952C60.2295 12.3508 60.2295 11.6063 60.2295 10.8619C60.3516 10.4309 60.3516 9.99991 60.3516 9.5689ZM56.1584 10.9011C54.8964 10.9011 53.8786 10.1958 53.8786 9.37303C53.8786 9.13795 53.9602 8.90282 54.1226 8.66774C54.1226 8.43266 54.1635 8.23678 54.2452 8.00165C54.4893 7.29641 55.0996 6.78705 55.7922 6.7479C56.9725 6.66954 57.9496 7.41398 58.0716 8.55022C58.2754 8.7853 58.4384 9.05954 58.4384 9.37303C58.3975 10.1958 57.3796 10.9011 56.1584 10.9011Z" fill="#C3C8C8"/>
</svg>
