<svg width="115" height="25" fill="none" xmlns="http://www.w3.org/2000/svg">
<path d="M24.922 9.84247C23.6633 9.84247 22.6562 10.7775 22.6562 12.0078C22.6562 13.2381 23.6633 14.1732 24.922 14.1732C26.1808 14.1732 27.1878 13.2381 27.1878 12.0078C27.1374 10.8267 26.1304 9.84247 24.922 9.84247Z" fill="#7D7D7D"/>
<path d="M52.0626 7.18491C51.3073 4.28137 49.4947 2.26365 46.6751 1.13176C45.4667 0.639636 44.1576 0.491998 42.8988 0.442786C40.9352 0.393573 38.9212 0.393573 36.9575 0.442786C36.5547 0.442786 36.5547 0.442786 36.5547 0.836486C36.5547 3.83845 36.5547 6.79121 36.5547 9.79318C36.5547 12.7951 36.5547 15.7971 36.5547 18.7991C36.5547 18.8975 36.5547 18.9467 36.5547 19.0451C36.5547 19.1436 36.605 19.1436 36.6554 19.1436C36.7561 19.1436 36.8064 19.1436 36.9071 19.1436C37.2596 19.1436 37.5617 19.1436 37.9141 19.1436H40.8345C40.8848 19.1436 40.9352 19.1436 40.9855 19.1436C42.2443 19.1436 43.8555 19.0944 44.359 19.0451C45.6681 18.8975 46.9268 18.553 48.0345 17.864C50.9045 16.1416 52.3143 13.5333 52.5157 10.2853C52.5157 9.25184 52.3647 8.21838 52.0626 7.18491ZM47.1282 13.2381C46.2723 14.4192 45.0639 15.1574 43.6037 15.3542C43.2513 15.4034 41.7408 15.4034 40.6331 15.4034C40.6331 11.8109 40.6331 8.21838 40.6331 4.57664C40.6331 4.52743 40.6331 4.42901 40.6331 4.37979C40.6331 4.08452 40.6331 4.08452 40.9352 4.08452C41.338 4.08452 41.7408 4.13373 42.1436 4.13373C42.7478 4.18294 43.352 4.18294 43.9562 4.33058C46.6247 4.87192 48.0849 6.88964 48.2863 9.15341C48.4373 10.7282 48.0345 12.057 47.1282 13.2381Z" fill="#7D7D7D"/>
<path d="M12.5374 15.4036H10.1709C10.0702 15.4036 10.0199 15.4036 9.91917 15.4036C9.61707 15.4036 9.26462 15.4036 8.96252 15.3544C6.0422 14.8623 4.33029 12.6477 4.12889 10.3347C4.02819 8.75992 4.43099 7.38197 5.48835 6.20087C6.49535 5.06898 7.80446 4.47843 9.36532 4.33079C10.0199 4.28158 10.7248 4.28158 11.3793 4.18315C12.5374 4.03551 13.3933 3.44496 13.8465 2.4115C14.0982 1.87016 14.2493 1.2304 14.4003 0.689057C14.4507 0.541419 14.4003 0.492207 14.2493 0.492207C14.1989 0.492207 14.1486 0.492207 14.0982 0.492207C12.5877 0.492207 11.1276 0.492207 9.61707 0.492207C8.66042 0.492207 7.65341 0.639844 6.64641 0.984333C4.22959 1.77173 2.36663 3.14969 1.15823 5.41347C0.604374 6.49614 0.201571 7.62803 0.0505206 8.80914C-0.05018 9.69496 -0.05018 10.63 0.151221 11.5158C0.604374 13.632 1.61138 15.4528 3.27294 16.88C5.08555 18.4056 7.20026 19.1438 9.56672 19.2422C10.5234 19.2914 11.48 19.2914 12.4367 19.2914H12.5374C13.5947 19.2914 14.501 18.4056 14.501 17.3721C14.501 16.2402 13.6451 15.4036 12.5374 15.4036Z" fill="#7D7D7D"/>
<path d="M33.0288 7.08649C33.0288 6.39752 32.9281 5.70854 32.777 5.01956C32.2735 3.00185 31.1155 1.52547 29.2022 0.688856C28.3462 0.295155 27.4399 0.147517 26.4832 0.0983047C26.4329 0.0983047 26.3825 0.0983047 26.3322 0.0983047H23.4622C23.4119 0.0983047 23.3615 0.0983047 23.3112 0.0983047C22.3545 0.0983047 21.4482 0.295155 20.5922 0.688856C18.6789 1.57468 17.4705 3.05106 17.0174 5.01956C16.8663 5.70854 16.7656 6.39752 16.7656 7.08649C16.7656 11.0235 16.7656 14.9605 16.7656 18.8483C16.7656 18.8975 16.7656 18.9467 16.7656 18.9959C16.7656 19.0944 16.816 19.1928 16.9167 19.1928C16.967 19.1928 17.0174 19.1928 17.0677 19.1928C18.2258 19.1928 19.3838 19.1928 20.5419 19.1928C20.5922 19.1928 20.6426 19.1928 20.6929 19.1928C20.7936 19.1928 20.844 19.1436 20.844 19.0452V6.44673C20.844 4.97035 22.1028 3.74004 23.6133 3.74004H26.0804C26.7853 3.74004 27.4399 3.9861 27.893 4.42901C27.9434 4.42901 27.9434 4.47823 27.9937 4.47823C28.0441 4.52744 28.0944 4.57665 28.1448 4.62586C28.1951 4.67508 28.1951 4.72429 28.2455 4.7735C28.5979 5.21641 28.8497 5.80697 28.8497 6.44673V12.7459C28.8497 14.7637 28.8497 16.7814 28.8497 18.7991V19.0452C28.8497 19.1436 28.9 19.242 29.0007 19.242C29.0511 19.242 29.1014 19.242 29.1518 19.242C30.3099 19.242 31.4679 19.242 32.626 19.242C32.6763 19.242 32.7267 19.242 32.777 19.242C32.9281 19.242 32.9281 19.1928 32.9281 19.0452C32.9281 18.9959 32.9281 18.9467 32.9281 18.8975C33.0288 14.9605 33.0288 11.0235 33.0288 7.08649Z" fill="#7D7D7D"/>
<path d="M66.6115 7.13579C66.108 6.74209 65.5541 6.44682 64.9499 6.24997C62.3317 5.31493 59.9149 5.65941 57.8002 7.38186C55.9372 8.90745 55.182 10.9252 55.4337 13.2874C55.6351 15.3543 56.5918 16.9783 58.3037 18.1594C59.8646 19.2421 61.5765 19.5866 63.4394 19.3405C65.2017 19.0945 66.7122 18.3563 67.9206 17.0767C68.122 16.8307 68.122 16.8799 67.9206 16.6338C67.115 15.6496 65.6548 15.2559 64.4464 15.6496C64.245 15.6988 64.0436 15.7972 63.7919 15.8464C62.231 16.3386 60.9219 15.9448 59.7639 14.813C59.7135 14.7637 59.6128 14.6653 59.6128 14.5177C59.6632 14.5177 59.7135 14.5177 59.7135 14.4685C62.6842 13.7795 65.7052 13.1397 68.6758 12.4508C68.978 12.4015 68.978 12.4015 68.978 12.0571C68.978 11.5157 68.9276 11.0236 68.7766 10.4822C68.4745 9.15351 67.8199 7.97241 66.6115 7.13579ZM65.252 11.1712C64.0436 11.4665 62.8856 11.7126 61.6772 12.0078C60.8212 12.2047 59.9149 12.4015 59.0589 12.5984C59.0086 12.5984 58.9582 12.6476 58.9079 12.5984C58.8575 12.2539 58.9079 11.9586 59.0086 11.6141C59.3107 10.433 60.0156 9.54721 61.224 9.20272C61.8786 9.00587 62.6338 8.95666 63.2884 9.1043C64.3457 9.30115 65.0003 9.99012 65.3527 10.9744C65.5038 11.122 65.4031 11.122 65.252 11.1712Z" fill="#464646"/>
<path d="M114.998 12.3032C114.998 11.6634 114.998 11.0237 114.947 10.3839C114.796 8.56305 113.89 7.18509 112.178 6.34848C110.919 5.70872 109.509 5.61029 108.15 5.85635C105.733 6.29927 103.971 8.16935 103.921 10.5808C103.87 11.9095 103.87 13.2382 103.921 14.567C103.921 15.9942 103.921 17.3721 103.921 18.7993C103.921 19.0453 103.921 19.0453 104.172 19.0453C105.129 19.0453 106.086 19.0453 107.042 19.0453C107.445 19.0453 107.395 19.0945 107.395 18.7008C107.395 16.3879 107.395 14.0749 107.395 11.7619C107.395 11.2697 107.445 10.7776 107.596 10.2855C107.798 9.64572 108.2 9.20281 108.905 9.05517C109.157 9.00596 109.409 9.00596 109.661 9.00596C110.466 9.05517 110.97 9.49809 111.171 10.2363C111.322 10.7284 111.372 11.1713 111.372 11.6634C111.372 13.9764 111.372 16.2894 111.372 18.6516C111.372 19.0453 111.322 18.9961 111.725 18.9961C112.682 18.9961 113.689 18.9961 114.645 18.9961C114.947 18.9961 114.947 19.0453 114.947 18.7008C114.947 18.6516 114.947 18.6516 114.947 18.6024C114.998 16.5847 114.998 14.4193 114.998 12.3032Z" fill="#464646"/>
<path d="M78.9459 12.5494C78.5431 12.2541 78.1402 12.0081 77.7374 11.762C77.2339 11.5159 76.6801 11.2699 76.1766 11.0238C75.8745 10.8762 75.5724 10.7285 75.2703 10.5809C75.0689 10.4825 74.8675 10.3348 74.7164 10.138C74.4647 9.7935 74.5654 9.35059 74.9178 9.15374C75.1696 9.0061 75.4213 8.95689 75.6731 9.0061C75.9248 9.05531 76.1262 9.15374 76.3276 9.25216C76.8311 9.54744 77.385 9.7935 77.8885 10.0396C78.4423 10.2856 79.0466 10.3841 79.6508 10.2364C80.2046 10.0888 80.1543 10.1872 80.0536 9.64586C80.0536 9.59665 80.0536 9.59665 80.0536 9.54744C79.7011 8.07106 78.8955 7.0376 77.4353 6.49626C76.2269 6.05334 74.9682 5.95492 73.7094 6.29941C72.4506 6.59468 71.5443 7.33287 71.1415 8.56319C70.9401 9.15374 70.9401 9.7935 71.0408 10.4333C71.1415 11.2207 71.5443 11.762 72.1989 12.2541C72.4003 12.4018 72.6521 12.5494 72.9038 12.6478C73.5584 12.9431 74.2129 13.2876 74.8675 13.5829C75.3206 13.7797 75.7234 14.0258 76.1262 14.3211C76.4787 14.5671 76.5794 14.9116 76.4787 15.3053C76.378 15.7482 76.1262 16.0435 75.6731 16.1419C75.0689 16.2896 74.515 16.1911 74.0619 15.8467C73.8101 15.699 73.6087 15.5022 73.357 15.4037C72.501 14.8624 71.2422 15.0592 70.5373 15.7974C70.3359 15.9943 70.2856 16.1911 70.3863 16.4372C70.638 16.9785 70.9401 17.4215 71.3933 17.8152C72.5514 18.7502 73.8605 19.2915 75.371 19.2915C76.4787 19.2915 77.4857 18.9963 78.4424 18.5533C79.0466 18.2581 79.4997 17.8152 79.8522 17.2246C80.255 16.4864 80.406 15.699 80.3053 14.9116C80.1543 13.8781 79.7515 13.0907 78.9459 12.5494Z" fill="#464646"/>
<path d="M86.2975 7.52978C86.2975 7.13608 86.2975 6.69316 86.2975 6.29946C86.2975 6.10261 86.2975 6.0534 86.0458 6.0534C85.4416 6.0534 84.8877 6.0534 84.2835 6.0534C83.8304 6.0534 83.4276 6.0534 82.9744 6.0534C82.7227 6.0534 82.7227 6.0534 82.7227 6.29946C82.7227 6.34867 82.7227 6.39789 82.7227 6.4471C82.7227 8.46482 82.7227 10.5317 82.7227 12.5495C82.7227 14.6164 82.7227 16.6833 82.7227 18.7995C82.7227 19.0947 82.7227 19.0947 83.0248 19.0947C83.9814 19.0947 84.9381 19.0947 85.8947 19.0947C86.2975 19.0947 86.2472 19.144 86.2472 18.701C86.2975 14.9609 86.2975 11.2699 86.2975 7.52978Z" fill="#464646"/>
<path d="M84.485 0.000136262C83.2262 0.0493489 82.2695 0.984388 82.2695 2.16549C82.2695 3.39581 83.2765 4.33085 84.485 4.33085C85.7437 4.33085 86.7507 3.34659 86.7507 2.16549C86.8011 0.984388 85.7437 -0.0490763 84.485 0.000136262Z" fill="#464646"/>
<path d="M101.756 15.7481C101.756 15.0591 101.756 14.3701 101.756 13.6811C101.756 13.4843 101.756 13.2382 101.756 13.0414C101.756 12.5984 101.706 12.2047 101.706 11.7618C101.706 11.565 101.655 11.3189 101.605 11.1221C101.303 9.25199 100.397 7.82483 98.9364 6.88979C98.4329 6.59451 97.9294 6.29924 97.3252 6.10238C97.0231 6.00396 96.721 5.90553 96.4189 5.85632C95.5126 5.65947 94.5559 5.70868 93.5993 5.85632C92.9951 5.95475 92.4412 6.10238 91.9377 6.34845C91.7867 6.44687 91.5853 6.49609 91.4342 6.59451C90.7797 6.98821 90.2258 7.48034 89.7727 8.07089C88.7657 9.39963 88.3125 10.8268 88.3125 12.3524C88.3125 12.8445 88.3629 13.3858 88.4636 13.878C88.5643 14.5177 88.7657 15.1083 89.0174 15.6496C89.4202 16.437 89.9237 17.126 90.6286 17.6673C91.3335 18.2087 92.1391 18.6024 93.1461 18.8977C93.4482 18.9961 93.8007 19.0453 94.1028 19.0945C94.3545 19.1437 94.6063 19.1437 94.9084 19.1437C96.3685 19.1437 97.6273 18.6024 98.2818 17.815C98.2818 18.1103 98.2818 18.4055 98.2818 18.7008C98.2818 18.8484 98.2819 18.9961 98.2315 19.1437C98.1308 19.7343 97.879 20.2264 97.5266 20.6201C97.3252 20.817 97.1238 20.9646 96.9224 21.1122C96.6706 21.2599 96.4189 21.3583 96.1168 21.4567C95.9154 21.5059 95.714 21.5551 95.5126 21.6044C95.1098 21.7028 94.707 21.7028 94.3042 21.7028C94.1028 21.7028 93.9014 21.7028 93.7 21.6536C93.2972 21.6044 92.844 21.5551 92.4412 21.5059C92.0384 21.4567 91.6356 21.3583 91.1825 21.3091C91.1321 21.3091 91.0314 21.3091 91.0314 21.3091C90.9811 21.3091 90.9811 21.3583 90.9307 21.4567C90.83 21.752 90.7797 22.0473 90.679 22.3918C90.5783 22.8347 90.4272 23.2284 90.3265 23.6713C90.2762 23.8189 90.2258 24.0158 90.1755 24.1634C90.1755 24.2126 90.1755 24.2618 90.1755 24.2618C90.1755 24.3603 90.2258 24.4095 90.3265 24.4095C90.3769 24.4095 90.3769 24.4095 90.4272 24.4587C91.2328 24.7047 91.9881 24.9016 92.7937 25C94.1028 25.1477 95.4622 25.1477 96.7713 24.8524C97.7783 24.6555 98.735 24.311 99.591 23.6713C99.9434 23.376 100.246 23.0807 100.497 22.7855C101.303 21.8504 101.706 20.6693 101.806 19.3898V19.3406C101.756 18.1103 101.706 16.9292 101.756 15.7481ZM95.0594 15.7973C94.707 15.7973 94.4049 15.7481 94.1028 15.6988C93.0958 15.4528 92.3405 14.813 92.0384 13.7796C91.8874 13.2382 91.837 12.6969 91.837 12.2047C91.837 12.0079 91.8874 11.8603 91.8874 11.6634C91.9377 11.4666 91.9377 11.2697 92.0384 11.1221C92.3909 9.99018 93.3475 9.20278 94.5056 9.10435C94.707 9.10435 94.9587 9.10435 95.1601 9.10435H95.2105C95.4119 9.10435 95.6133 9.15357 95.8147 9.20278H95.865C96.0664 9.25199 96.2175 9.35042 96.4189 9.39963C96.4189 9.39963 96.4692 9.39963 96.4692 9.44884C96.6203 9.54727 96.7713 9.64569 96.9224 9.74412L96.9727 9.79333C97.1238 9.89176 97.2748 10.0394 97.3755 10.187C97.3755 10.187 97.3755 10.2362 97.4259 10.2362C97.5266 10.3839 97.6777 10.5315 97.728 10.7284C97.728 10.7284 97.728 10.7284 97.728 10.7776C97.8287 10.9744 97.8791 11.1221 97.9798 11.3189C98.0301 11.5158 98.0804 11.7126 98.1308 11.9587C98.1308 12.0571 98.1308 12.1555 98.1308 12.254C98.1308 13.0414 98.1308 13.7796 98.1812 14.567C97.5266 15.3051 96.3685 15.7973 95.0594 15.7973Z" fill="#464646"/>
</svg>
