<svg xmlns="http://www.w3.org/2000/svg" width="36" height="29" viewBox="0 0 36 29">
  <path d="M1.7,27.9a13.3,13.3,0,0,1,.4-4.3A8.2,8.2,0,0,1,5.5,19a11.5,11.5,0,0,1,2-.5,9.1,9.1,0,0,1-2-2.2,5.7,5.7,0,0,1,0-4.8A5.7,5.7,0,0,1,8.6,8.7c1.4-.4,2.4-.1,2.9-.4s.1-.8.2-1.7a6.8,6.8,0,0,1,3.9-4.8c.4-.1,3-1,5.2.2a6.7,6.7,0,0,1,3.1,3.5A6.9,6.9,0,0,1,24.3,8c0,.4,1.1.2,2.2.4a6,6,0,0,1,3.4,2.1A5.3,5.3,0,0,1,31,13.7a6.7,6.7,0,0,1-1.6,4.1c-.6.6-2.1.9-2,1.1s1.6-.5,2.5-.1a6.9,6.9,0,0,1,3.6,3.7,14.6,14.6,0,0,1,.8,5.4M11.6,8.1a8.1,8.1,0,0,0,.9,2.8,6.2,6.2,0,0,0,2.3,2.3,5.2,5.2,0,0,0,4,.8,5.5,5.5,0,0,0,3-1.2,7.3,7.3,0,0,0,1.9-2,16.8,16.8,0,0,0,.6-2.3,4.9,4.9,0,0,0,.1-1.1M13.8,13l-2.7,1.8a10.5,10.5,0,0,0-1.9,2.4,8.8,8.8,0,0,0-1,2.6A8.6,8.6,0,0,0,8,22.2c-.1,1.3,0,1.9,0,4.1v1.6m19.4,0c.1-1.4.1-2.5.1-3.4a24.1,24.1,0,0,0-.2-3.7,17.3,17.3,0,0,0-.5-2.4,10.1,10.1,0,0,0-1.2-2.2,6.3,6.3,0,0,0-1.7-1.9,24.3,24.3,0,0,0-2.2-1.4" fill="none" stroke="#000" stroke-miterlimit="10" stroke-width="2"/>
</svg>