<svg width="30" height="30" viewBox="0 0 30 30" xmlns="http://www.w3.org/2000/svg">
  <path
    d="M5.66195 6.72057C7.4967 6.72057 8.98405 5.21613 8.98405 3.36029C8.98405 1.50446 7.4967 0 5.66195 0C3.82721 0 2.33984 1.50446 2.33984 3.36029C2.33984 5.21613 3.82721 6.72057 5.66195 6.72057Z" />
  <path
    d="M24.3377 0C26.1723 0 27.6598 1.50407 27.6598 3.36029C27.6598 5.21652 26.1729 6.72 24.3377 6.72C22.5026 6.72 21.0156 5.21595 21.0156 3.36029C21.0156 1.50464 22.5026 0 24.3377 0Z" />
  <path
    d="M26.8306 6.36841C26.1764 6.98582 25.3015 7.36752 24.3379 7.36752C23.3738 7.36752 22.4994 6.98582 21.8452 6.36841C20.429 6.7467 19.3026 7.84577 18.8696 9.25157C17.646 9.02323 16.346 8.89998 15 8.89998C13.654 8.89998 12.3545 9.02323 11.1304 9.25157C10.698 7.84577 9.57098 6.7467 8.15533 6.36841C7.50113 6.98582 6.62622 7.36695 5.66261 7.36695C4.699 7.36695 3.82412 6.98582 3.16992 6.36841C1.34883 6.85518 0 8.53135 0 10.5233V14.0108L0.00897979 14.0648L0.246516 14.1403C0.987756 14.3744 1.69363 14.5527 2.36804 14.6924C2.05695 15.3672 1.88735 16.0767 1.88735 16.8099C1.88735 19.9765 4.98932 22.7132 9.45585 23.9753C9.29076 24.4325 9.19923 24.9249 9.19923 25.4396V28.9271L9.20823 28.9816L9.44574 29.0572C11.6835 29.7637 13.6281 30 15.2285 30C18.3547 30 20.1662 29.0986 20.278 29.0412L20.5003 28.9271H20.5239V25.4396C20.5239 24.9505 20.4419 24.4808 20.2926 24.044C24.8939 22.8143 28.1132 20.035 28.1132 16.8099C28.1132 16.1119 27.9605 15.4342 27.6774 14.789C28.9617 14.5203 29.685 14.1608 29.754 14.125L29.9764 14.0108H30V10.5233C30.0006 8.53135 28.6523 6.85518 26.8306 6.36841ZM27.2069 16.8099C27.2069 19.667 24.1987 22.1281 19.9028 23.2119C19.3374 22.2758 18.4299 21.5715 17.3551 21.2846C16.7004 21.9021 15.8255 22.2826 14.8619 22.2826C13.8988 22.2826 13.0234 21.9021 12.3692 21.2846C11.3179 21.5652 10.4262 22.244 9.85849 23.1499C5.6907 22.0355 2.79369 19.6124 2.79369 16.8094C2.79369 16.1329 2.96552 15.4791 3.27999 14.86C4.28347 15.0179 5.20328 15.0832 6.02931 15.0832C9.15487 15.0832 10.967 14.1818 11.0787 14.1244L11.3011 14.0103L11.3247 14.0108V10.5228C11.3247 10.395 11.3185 10.2683 11.3078 10.1439C12.4736 9.9309 13.7135 9.8156 15 9.8156C16.2871 9.8156 17.5269 9.9309 18.6927 10.1439C18.682 10.2689 18.6759 10.395 18.6759 10.5228V14.0103L18.6848 14.0642L18.923 14.1392C21.1601 14.8458 23.1048 15.0821 24.7052 15.0821C25.4734 15.0821 26.1602 15.0281 26.7638 14.9446C27.0502 15.5399 27.2069 16.1641 27.2069 16.8099Z" />
  <path d="M14.8606 21.6363C16.695 21.6363 18.1822 20.1321 18.1822 18.2766C18.1822 16.4211 16.695 14.9169 14.8606
    14.9169C13.0262 14.9169 11.5391 16.4211 11.5391 18.2766C11.5391 20.1321 13.0262 21.6363 14.8606 21.6363Z" />
</svg>
