<svg width="11" height="18" viewBox="0 0 11 18" xmlns="http://www.w3.org/2000/svg">
<path d="M4.59836 12.7964C3.1782 12.6541 1.89771 12.3181 0.801413 11.4943C0.665383 11.3918 0.52494 11.293 0.400806 11.1786C-0.0790409 10.7358 -0.12739 10.2287 0.252304 9.70612C0.577127 9.25893 1.1224 9.1393 1.68916 9.39607C1.7989 9.44584 1.90347 9.50796 2.00362 9.57469C4.04676 10.9234 6.8535 10.9607 8.90431 9.63533C9.1075 9.48566 9.32468 9.36363 9.57641 9.30133C10.0658 9.18059 10.5223 9.35331 10.7849 9.76473C11.085 10.2346 11.0812 10.6932 10.7115 11.058C10.1443 11.6173 9.46225 12.0219 8.7044 12.3043C7.98779 12.5712 7.20288 12.7055 6.42604 12.7948C6.54326 12.9173 6.59852 12.9776 6.67181 13.0484C7.72667 14.0666 8.78613 15.0806 9.83753 16.102C10.1957 16.45 10.2706 16.8816 10.0733 17.2863C9.85768 17.7287 9.37495 18.0198 8.90163 17.9886C8.60175 17.9687 8.36787 17.8253 8.16008 17.6242C7.36405 16.8546 6.55305 16.0993 5.77313 15.3151C5.54616 15.0871 5.43699 15.1302 5.23668 15.3282C4.43585 16.1203 3.62197 16.9002 2.8033 17.6757C2.43569 18.0239 1.99825 18.0865 1.57193 17.8876C1.11875 17.6766 0.830384 17.2322 0.85264 16.7855C0.867989 16.4834 1.02263 16.2526 1.23847 16.0456C2.28239 15.0441 3.32344 14.0401 4.36486 13.037C4.43374 12.9702 4.49802 12.8995 4.59836 12.7964Z"/>
<path d="M5.46351 9.30843C2.92997 9.30014 0.852492 7.28227 0.867266 4.84431C0.881847 2.37945 2.96067 0.3931 5.51915 0.39992C8.08281 0.406556 10.1405 2.42147 10.1277 4.91196C10.1146 7.34494 8.02275 9.31691 5.46351 9.30843ZM7.76604 4.85021C7.76163 3.63971 6.75819 2.67603 5.50073 2.67493C4.23271 2.67364 3.22026 3.65483 3.23005 4.87639C3.23945 6.08228 4.25152 7.03914 5.51243 7.03471C6.76951 7.03047 7.77026 6.06053 7.76604 4.85021Z"/>
</svg>
