<svg width="66" height="62" viewBox="0 0 66 62" fill="none" xmlns="http://www.w3.org/2000/svg">
<path d="M65.6287 11.4774L61.9707 6.81041L65.7422 1.90268C66.0255 1.5339 66.0616 1.05079 65.8337 0.651403C65.6067 0.251216 65.1554 0 64.6628 0H50.5417C49.0988 0 47.9243 1.13935 47.9243 2.5388V3.0324C47.9235 3.0485 47.9191 3.06301 47.9191 3.07911V21.5473H43.8449C40.3073 21.5473 37.4305 24.3325 37.4305 27.7554V33.1366C36.0581 31.8499 34.1938 31.0535 32.1378 31.0535C27.937 31.0535 24.5191 34.3678 24.5191 38.4413V43.192C23.1915 42.0253 21.4364 41.307 19.507 41.307C15.3845 41.307 12.0308 44.5592 12.0308 48.5571V51.5871C10.8704 50.7086 9.41436 50.1796 7.83167 50.1796H6.84017C3.06774 50.1796 0 53.1508 0 56.804V60.7922C0 61.4597 0.590323 62 1.31965 62H13.3513C13.3575 62 13.3628 61.9984 13.3689 61.9984H25.6671C25.7032 61.9984 25.7367 61.9911 25.771 61.9887C25.7947 61.9895 25.8167 61.9952 25.8405 61.9952H38.4405C38.4862 61.9952 38.5302 61.9871 38.5742 61.9831C38.6323 61.9903 38.6903 61.9992 38.751 61.9992H61.8211C62.5496 61.9992 63.1408 61.4589 63.1408 60.7914V27.7554C63.1408 24.3325 60.2639 21.5473 56.7281 21.5473H50.5592V13.525H64.6628C64.6689 13.525 64.6742 13.525 64.6804 13.525C65.4097 13.525 66 12.9847 66 12.3172C66 11.9911 65.8592 11.6948 65.6287 11.4774ZM2.6393 56.8048C2.6393 54.4842 4.52375 52.596 6.84017 52.596H7.83167C10.1472 52.596 12.0308 54.4842 12.0308 56.8048V59.5852H2.63841V56.8048H2.6393ZM24.3466 59.5836H14.671V56.8048V48.5579C14.671 45.8919 16.8405 43.7234 19.5079 43.7234C22.1763 43.7234 24.3466 45.8919 24.3466 48.5563V59.5836ZM37.1208 59.5804H27.1601V38.4413C27.1601 35.6996 29.3939 33.4691 32.1396 33.4691C34.8862 33.4691 37.1208 35.6996 37.1208 38.4413V59.5804ZM60.5015 27.7562V59.5844H40.0707V27.7562C40.0707 25.6651 41.7642 23.9637 43.8458 23.9637H48.8991C49.0082 23.9903 49.1208 24.0096 49.2396 24.0096C49.3584 24.0096 49.471 23.9911 49.5801 23.9637H56.7281C58.8088 23.9637 60.5015 25.6651 60.5015 27.7562ZM50.5645 11.1102V2.5388C50.5645 2.46794 50.5918 2.42286 50.5663 2.41562H62.122L59.5311 5.78621C59.0455 6.42152 58.8554 7.00931 59.5091 7.81613L62.0938 11.111H50.5645V11.1102Z" fill="#4F4F4F"/>
</svg>
