<svg width="54" height="69" viewBox="0 0 54 69" fill="none" xmlns="http://www.w3.org/2000/svg">
<path d="M53.4441 9.26234C52.9077 8.73639 52.2067 8.7364 51.8314 8.7364L51.0928 8.74359L50.7368 8.74C43.8138 8.58563 36.4781 5.93885 28.9346 0.872384L28.6682 0.69198C28.0999 0.305151 27.6523 0 27.0034 0C26.3554 0 25.9161 0.30067 25.3587 0.681216L25.0594 0.884942C17.3877 6.03129 9.93486 8.67627 2.90572 8.74448L2.50484 8.74627C1.68752 8.74807 1.04135 8.74987 0.504093 9.28928C-0.0230917 9.81881 -0.0093538 10.4614 0.00437497 11.0834C0.00712073 11.2234 0.0107712 11.3859 0.0107712 11.5725V42.1957C0.0107712 43.9584 0.099561 44.9035 0.945254 46.5577C6.08348 56.591 14.577 64.1418 26.1879 69H27.2661C39.1314 64.0332 47.7476 56.6026 52.8757 46.9131C53.6674 45.4151 53.9996 44.5032 53.9996 42.7316V11.3993C54.0024 10.4794 54.0033 9.81251 53.4441 9.26234ZM51.2548 42.7333C51.2548 43.9593 51.0809 44.462 50.4402 45.6745C45.691 54.6478 37.7146 61.5838 26.7279 66.2967C16.0066 61.6888 8.15927 54.6443 3.40087 45.3514C2.78948 44.155 2.75836 43.6075 2.75836 42.1966V11.5734C2.75836 11.5268 2.75836 11.481 2.75836 11.4379L2.93501 11.437C10.517 11.3634 18.4824 8.56049 26.6107 3.1072L26.9302 2.89C26.9576 2.87115 26.9833 2.85409 27.0071 2.83704C27.0373 2.85768 27.0693 2.88012 27.1041 2.90346L27.385 3.09374C35.3743 8.45908 43.2107 11.2638 50.6755 11.4307C50.8256 11.4343 50.9647 11.4352 51.0937 11.4352L51.2557 11.4334V42.7333H51.2548Z" fill="#4F4F4F"/>
</svg>
