<svg width="68" height="67" viewBox="0 0 68 67" fill="none" xmlns="http://www.w3.org/2000/svg">
<path d="M67.0007 36.464L51.5418 27.6248C51.541 24.8642 51.5384 22.1793 51.5341 19.5038C51.5306 16.6056 51.5272 13.7074 51.5272 10.7025C51.5272 10.7008 51.5272 10.6991 51.5272 10.6965C51.5272 10.6776 51.5272 10.6587 51.5272 10.6389C51.5272 10.0291 51.1037 9.51745 50.5339 9.38329L34.4192 0.170924C34.0232 -0.0561168 33.5369 -0.0569688 33.141 0.168352L16.904 9.3661C16.8283 9.40738 16.756 9.45638 16.6906 9.51142C16.6363 9.55614 16.5881 9.60517 16.5425 9.65677C16.3471 9.88123 16.2301 10.1745 16.2283 10.4953C16.2283 10.4953 16.2283 10.4961 16.2283 10.4979C16.2283 10.4987 16.2283 10.4996 16.2283 10.5004C16.2283 13.6377 16.237 16.5385 16.2456 19.4393C16.2524 22.1027 16.2602 24.7748 16.2611 27.6214L0.676523 36.4476C0.598196 36.4898 0.525035 36.5396 0.457897 36.5964C0.407114 36.6385 0.360639 36.685 0.317602 36.734C0.120493 36.9593 0.00172148 37.2535 0 37.576C0 37.576 0 37.5768 0 37.5785C0 37.5794 0 37.5802 0 37.5811V55.5784C0 56.0428 0.249602 56.4719 0.65501 56.7007L17.1467 66.0404C17.3396 66.1539 17.5633 66.2193 17.8035 66.2193C18.0436 66.2193 18.2666 66.1539 18.4594 66.0412L34.1756 57.1643L49.8453 66.0404C50.0381 66.1539 50.2619 66.2193 50.502 66.2193C50.7422 66.2193 50.9651 66.1539 51.158 66.0404L67.3441 56.8985C67.7495 56.6698 68 56.2406 68 55.7754V37.7178C67.9974 37.109 67.5714 36.5973 67.0007 36.464ZM48.9527 19.5064C48.9562 22.1862 48.9596 24.8659 48.9605 27.6317L35.3204 35.6005V20.6038L48.9467 12.9093C48.9476 15.1393 48.9501 17.3228 48.9527 19.5064ZM33.7762 2.77503L47.6255 10.6931L34.0301 18.3703L20.137 10.5022L33.7762 2.77503ZM32.7381 20.6038V35.5696L18.8433 27.6257C18.8416 24.7714 18.8338 22.1028 18.826 19.4333C18.82 17.2291 18.814 15.0249 18.8114 12.7158L32.7381 20.6038ZM16.5107 62.7165L2.58048 54.8276V39.7956L16.5107 47.6844V62.7165ZM17.8026 45.451L3.90773 37.5828L17.5487 29.8583L31.3532 37.7995L17.8026 45.451ZM19.0929 47.6862L32.7003 40.002V55.0349L19.0929 62.7199V47.6862ZM49.2084 62.7165L35.2988 54.838V39.6245L49.2084 47.6775V62.7165ZM50.5072 45.4476L37.0186 37.6379L50.2593 29.8643L64.094 37.7746L50.5072 45.4476ZM65.4152 55.0254L51.7915 62.7199V47.6862L65.4152 39.9926V55.0254Z" fill="#4F4F4F"/>
</svg>
