<svg width="30" height="30" viewBox="0 0 30 30" xmlns="http://www.w3.org/2000/svg">
  <path fill-rule="evenodd" clip-rule="evenodd"
    d="M4.39453 0H25.6055C28.0286 0 30 1.97139 30 4.39453V23.8477C30 26.2708 28.0286 28.2422 25.6055 28.2422V30H22.0898V28.2422H7.91016V30H4.39453V28.2422C1.97139 28.2422 0 26.2708 0 23.8477V4.39453C0 1.97139 1.97139 0 4.39453 0ZM3.51562 24.7266H26.4844V3.51562H3.51562V24.7266ZM5.27344 5.27344V22.9688H24.7266V5.27344H5.27344ZM10.0195 20.2734H8.26172V7.96875H10.0195V20.2734ZM18.2812 18.8086C15.6966 18.8086 13.5938 16.7058 13.5938 14.1211C13.5938 11.5364 15.6966 9.43359 18.2812 9.43359C20.8659 9.43359 22.9688 11.5364 22.9688 14.1211C22.9688 16.7058 20.8659 18.8086 18.2812 18.8086ZM18.2812 11.1914C16.6658 11.1914 15.3516 12.5057 15.3516 14.1211C15.3516 15.7365 16.6658 17.0508 18.2812 17.0508C19.8967 17.0508 21.2109 15.7365 21.2109 14.1211C21.2109 12.5057 19.8967 11.1914 18.2812 11.1914ZM18.2812 15.293C17.6351 15.293 17.1094 14.7673 17.1094 14.1211C17.1094 13.4749 17.6351 12.9492 18.2812 12.9492C18.9274 12.9492 19.4531 13.4749 19.4531 14.1211C19.4531 14.7673 18.9274 15.293 18.2812 15.293Z" />
</svg>
