<svg width="30" height="35" viewBox="0 0 30 35" xmlns="http://www.w3.org/2000/svg">
<path fill-rule="evenodd" clip-rule="evenodd" d="M0 17.6353C0 19.6706 0.88151 21.5047 2.28464 22.7796C2.09583 23.3649 2 23.975 2 24.6019C2 28.0018 4.85729 30.7117 8.25391 30.5679C9.09583 33.5699 11.8674 34.6206 15 34.6206C18.131 34.6206 20.9057 33.5712 21.7466 30.5681C25.1586 30.7086 28 27.9893 28 24.6019C28 23.975 27.9042 23.3649 27.7154 22.7796C29.1185 21.5047 30 19.6706 30 17.6353C30 15.5836 29.1039 13.7365 27.6813 12.4603C27.893 11.8847 28 11.2847 28 10.6686C28 7.59348 25.2607 5.05356 21.7544 4.73166C20.9255 1.71589 18.1557 0.649902 15 0.649902C11.8565 0.649902 9.07318 1.70034 8.24427 4.73166C4.73854 5.05408 2 7.59348 2 10.6686C2 11.2847 2.10703 11.8847 2.31875 12.4603C0.896094 13.7365 0 15.5836 0 17.6353ZM19.9443 5.83938C20.0172 6.35929 20.4953 6.76101 21.0711 6.68818C23.7956 6.71851 26 8.49231 26 10.6686C26 10.8858 25.9776 11.1001 25.9344 11.3111C25.0414 10.899 24.0474 10.6686 23 10.6686C21.9206 10.6686 20.9208 11.012 20.1029 11.5931C19.8487 11.4067 19.7586 11.1468 19.7292 11.0226C19.6906 10.8604 19.6396 10.4444 19.9953 10.0901C20.3859 9.70162 20.3859 9.07156 19.9953 8.6828C19.6049 8.29404 18.9716 8.29404 18.5813 8.6828C17.8406 9.4199 17.5422 10.4654 17.7826 11.4801C17.9307 12.1042 18.2672 12.6474 18.7352 13.0504C18.2693 13.8062 18 14.6949 18 15.6448C18 16.1945 18.4477 16.64 19 16.64C19.5523 16.64 20 16.1945 20 15.6448C20 13.9985 21.3458 12.6591 23 12.6591C25.757 12.6591 28 14.8914 28 17.6353C28 20.3791 25.757 22.6114 23 22.6114C22.4477 22.6114 22 23.057 22 23.6067C22 24.1564 22.4477 24.6019 23 24.6019C24.0523 24.6019 25.051 24.3692 25.9474 23.9532C25.9823 24.1657 26 24.3821 26 24.6019C26 27.1478 23.6198 29.031 21.1622 28.4947C20.5872 28.369 20.0273 28.7635 19.9555 29.3451C19.7385 31.0992 18.7086 32.3375 16 32.5861V2.68417C18.6669 2.92935 19.7047 4.1353 19.9443 5.83938ZM4 10.6686C4 8.47339 6.24297 6.68766 9 6.68766C9.01797 6.68766 9.03568 6.68766 9.05365 6.68792L9.06058 6.68815L9.06693 6.68818C9.56484 6.68818 9.98802 6.32274 10.057 5.83083C10.2948 4.13919 11.3177 2.92884 14 2.68391V32.5863C11.7826 32.3826 10.3112 31.4986 10.044 29.3417C9.97161 28.7565 9.40677 28.3628 8.83021 28.4929C6.43151 29.0356 4 27.1807 4 24.6019C4 24.3821 4.01771 24.1657 4.0526 23.9532C4.94896 24.3692 5.94766 24.6019 7 24.6019C7.55234 24.6019 8 24.1564 8 23.6067C8 23.057 7.55234 22.6114 7 22.6114C4.24297 22.6114 2 20.3791 2 17.6353C2 14.8914 4.24297 12.6591 7 12.6591C8.65417 12.6591 10 13.9985 10 15.6448C10 16.1945 10.4477 16.64 11 16.64C11.5523 16.64 12 16.1945 12 15.6448C12 14.6205 11.6872 13.6675 11.1518 12.8752C11.5281 12.4898 11.7987 12.0044 11.924 11.4583C12.1549 10.4512 11.8547 9.41342 11.1203 8.6828C10.7299 8.2943 10.0966 8.2943 9.70625 8.6828C9.31563 9.07156 9.31563 9.70162 9.70625 10.0904C10.0589 10.4413 10.0109 10.8542 9.97396 11.0154C9.95078 11.1165 9.88828 11.3088 9.72917 11.4785C8.94375 10.9672 8.00651 10.6686 7 10.6686C5.9526 10.6686 4.95859 10.899 4.06563 11.3111C4.0224 11.1001 4 10.8858 4 10.6686ZM21 26.6274C21.5523 26.6274 22 26.1802 22 25.6283C22 25.0765 21.5523 24.6292 21 24.6292C20.4487 24.6292 20 24.1809 20 23.6301V21.6318C20 21.081 20.4487 20.6327 21 20.6327C22.6542 20.6327 24 19.2881 24 17.6354C24 17.0835 23.5523 16.6362 23 16.6362C22.4477 16.6362 22 17.0835 22 17.6354C22 18.1862 21.5513 18.6345 21 18.6345C19.3458 18.6345 18 19.9791 18 21.6318V23.6301C18 25.2828 19.3458 26.6274 21 26.6274ZM8 17.6354C8 18.1862 8.4487 18.6345 9 18.6345C10.6542 18.6345 12 19.9791 12 21.6318V23.6301C12 25.2828 10.6542 26.6274 9 26.6274C8.44766 26.6274 8 26.1802 8 25.6283C8 25.0765 8.44766 24.6292 9 24.6292C9.5513 24.6292 10 24.1809 10 23.6301V21.6318C10 21.081 9.5513 20.6327 9 20.6327C7.34583 20.6327 6 19.2881 6 17.6354C6 17.0835 6.44766 16.6362 7 16.6362C7.55234 16.6362 8 17.0835 8 17.6354Z" />
</svg>
