<svg width="74" height="74" viewBox="0 0 74 74" fill="none" xmlns="http://www.w3.org/2000/svg">
<path d="M37.0064 45.2287C36.2762 45.2287 35.727 44.9027 34.897 44.4092L30.111 41.5746L1.74778 24.7786C0.68504 24.1497 -0.0166396 23.7345 0.000300072 22.7796C0.0172398 21.8549 0.739417 21.4612 1.37778 21.1138C1.56857 21.0096 1.80037 20.884 2.06873 20.7236C7.48943 17.4945 12.9806 14.1361 18.2916 10.8892C23.8755 7.47472 29.6474 3.94537 35.3579 0.55319C35.8474 0.261898 36.3359 0 36.919 0C37.5208 0 37.9398 0.26012 38.3838 0.534487L38.6888 0.720664C44.2887 4.04781 49.9804 7.50946 55.4849 10.8562C61.1133 14.2787 66.9335 17.8187 72.6546 21.2145L72.8847 21.349C73.3572 21.6251 74.0044 22.0019 74 22.8589C73.9955 23.7123 73.3429 24.0846 72.9096 24.3305L72.6261 24.4944C66.9147 27.8786 61.2302 31.2627 55.5456 34.6469C50.1275 37.8733 44.7086 41.0989 39.2656 44.3254C38.292 44.9045 37.7446 45.2287 37.0064 45.2287ZM3.73062 22.8455L36.2646 42.1118C36.5517 42.2828 36.8486 42.4592 37.0082 42.5331C37.1811 42.4548 37.511 42.2579 37.8338 42.0681C43.3418 38.8025 48.759 35.5778 54.1761 32.3522C59.4987 29.1827 64.8205 26.0141 70.1663 22.8455C64.7973 19.6484 59.3614 16.3435 54.0941 13.1393C48.5958 9.79526 42.9103 6.33807 37.3211 3.01715L36.9743 2.80604C36.9458 2.78733 36.9181 2.7704 36.8914 2.75347C36.8459 2.77931 36.7915 2.81049 36.7256 2.84968C31.0294 6.23295 25.2645 9.75874 19.6887 13.1678C14.4668 16.3623 9.07018 19.6627 3.73062 22.8455Z" fill="#4F4F4F"/>
<path d="M36.9932 62.0226C36.8719 62.0226 36.7515 62.0066 36.632 61.9728C36.5063 61.9371 36.3887 61.8845 36.2799 61.8159L8.52734 44.9281V28.7129C8.52734 27.9744 9.12647 27.3767 9.86469 27.3767C10.6029 27.3767 11.202 27.9744 11.202 28.7129V43.4271L35.6567 58.308V45.3263C35.6567 44.5878 36.2558 43.9901 36.994 43.9901C37.7322 43.9901 38.3314 44.5878 38.3314 45.3263V58.2964L62.7985 43.4066V28.6933C62.7985 27.9548 63.3977 27.3571 64.1359 27.3571C64.8741 27.3571 65.4732 27.9548 65.4732 28.6933V44.9085L37.8259 61.7331C37.7706 61.7768 37.7126 61.816 37.6529 61.8498C37.4906 61.9416 37.3079 62.0004 37.1135 62.0173C37.0734 62.0208 37.0333 62.0226 36.9932 62.0226Z" fill="#4F4F4F"/>
<path d="M60.684 73.9381H48.2227V60.9787C48.2227 57.8208 51.0186 55.2509 54.4538 55.2509C57.889 55.2509 60.6831 57.8199 60.6831 60.9787V73.9381H60.684ZM50.8973 71.2657H58.0094V60.9787C58.0094 59.2942 56.4143 57.9233 54.4547 57.9233C52.4942 57.9233 50.8982 59.2942 50.8982 60.9787V71.2657H50.8973Z" fill="#4F4F4F"/>
<path d="M54.3355 57.0378C53.5973 57.0378 52.9981 56.4401 52.9981 55.7016V34.4729L35.6483 23.8064C35.0198 23.4198 34.8228 22.5967 35.2106 21.9687C35.5984 21.3389 36.4222 21.1456 37.0499 21.5313L55.6728 32.9799V55.7025C55.6728 56.4401 55.0746 57.0378 54.3355 57.0378Z" fill="#4F4F4F"/>
</svg>
