<svg width="21" height="12" viewBox="0 0 21 12" xmlns="http://www.w3.org/2000/svg">
<path d="M18.2106 7.361C18.8733 7.93628 19.5757 8.47514 20.1712 9.10625C20.4332 9.38418 20.6829 9.67667 20.8736 10.0007C21.1439 10.4631 20.901 10.9729 20.4318 11.0008L17.5136 10.9996C16.7618 11.0554 16.1622 10.7872 15.656 10.3321C15.2526 9.96795 14.878 9.58201 14.4898 9.20456C14.3306 9.05285 14.1646 8.906 13.9657 8.79312C13.5678 8.56496 13.2221 8.63413 12.9943 9.00309C12.7624 9.37568 12.7103 9.78833 12.687 10.2058C12.6554 10.8127 12.4483 10.9729 11.7582 10.9996C10.2846 11.0627 8.88522 10.8649 7.58595 10.207C6.44034 9.62691 5.5513 8.80769 4.7775 7.88045C3.27106 6.07694 2.11859 4.09381 1.08137 2.05486C0.848136 1.59609 1.01963 1.34729 1.59175 1.34001C2.54391 1.32302 3.49469 1.32544 4.44685 1.34001C4.83512 1.34243 5.09031 1.53905 5.23986 1.8631C5.75435 2.9821 6.38409 4.04769 7.17435 5.0344C7.38427 5.29777 7.59967 5.56113 7.90562 5.74561C8.24313 5.95072 8.50106 5.88154 8.66021 5.55021C8.76174 5.33782 8.80564 5.11086 8.82896 4.88391C8.90442 4.10474 8.91403 3.32678 8.78232 2.55246C8.7 2.06821 8.3913 1.75387 7.84525 1.66163C7.56674 1.61672 7.60927 1.52327 7.74373 1.38249C7.97833 1.14097 8.19785 0.989258 8.63826 0.989258H11.9338C12.4524 1.07907 12.5676 1.28539 12.639 1.7478L12.6417 4.98586C12.6362 5.16548 12.7432 5.69585 13.1068 5.81479C13.399 5.89853 13.5911 5.69221 13.7654 5.52958C14.5529 4.78803 15.1154 3.91298 15.6203 3.00637C15.8439 2.60707 16.036 2.19443 16.2212 1.77935C16.3598 1.47351 16.5766 1.3218 16.9662 1.32787L20.1396 1.3303C20.2329 1.3303 20.3289 1.33151 20.4195 1.34608C20.9546 1.42496 21.1 1.62886 20.9353 2.09127C20.676 2.81704 20.1698 3.42023 19.6745 4.02585C19.1449 4.67273 18.5797 5.29898 18.0542 5.95072C17.574 6.54542 17.611 6.84519 18.2106 7.361Z"/>
</svg>
